<svg id="Layer_1" data-name="Layer 1" xmlns="http://www.w3.org/2000/svg" xmlns:xlink="http://www.w3.org/1999/xlink" viewBox="0 0 1200 720.3"><defs><style>.cls-1{fill:none;}.cls-2{fill:#fff;}.cls-15,.cls-3{fill:#c1272d;}.cls-14,.cls-4{fill:#1b1464;}.cls-5{fill:#fbb03b;}.cls-6{fill:#f15a24;}.cls-7{fill:#332212;}.cls-8{fill:#543f2d;}.cls-9{fill:#f7d64b;}.cls-10{fill:#f4dfab;}.cls-11{fill:#f3f3f3;}.cls-12{fill:#009543;stroke-width:2px;}.cls-12,.cls-13,.cls-14,.cls-15{stroke:#000;stroke-linejoin:round;}.cls-13{stroke-width:0.5px;}.cls-14,.cls-15{stroke-width:2.8px;}.cls-16{fill:#fcee21;}.cls-17{clip-path:url(#clip-path);}.cls-18{clip-path:url(#clip-path-2);}</style><clipPath id="clip-path" transform="translate(0 0.3)"><polygon id="SVGID" class="cls-1" points="110.08 273.92 154.61 273.92 154.61 321.27 152.08 323.13 110.08 323.13 110.08 273.92"/></clipPath><clipPath id="clip-path-2" transform="translate(0 0.3)"><rect id="SVGID-2" data-name="SVGID" class="cls-1" x="120.62" y="284.28" width="23.59" height="30.61"/></clipPath></defs><title>Natalyre Flag</title><rect class="cls-2" y="480.3" width="1200" height="240"/><rect class="cls-3" y="0.3" width="1200" height="240"/><rect class="cls-4" y="240.3" width="1200" height="240"/><polygon class="cls-5" points="601 360.3 1 0 1 720 601 360.3"/><polygon class="cls-6" points="500 360.55 0 50.3 0 670.3 500 360.55"/><polygon class="cls-3" points="401 360.3 1 100.3 1 620.3 401 360.3"/><path class="cls-2" d="M132.68,448.73A124.25,124.25,0,0,1,95,441.82c-11-4-19.7-9.55-26-16.46-7.86-8.65-11.85-19.47-11.85-32.15V323.94h151v69.27c0,12.68-4,23.5-11.85,32.15-6.27,6.9-15,12.44-26,16.46A124.29,124.29,0,0,1,132.68,448.73Z" transform="translate(0 0.3)"/><path d="M207.64,324.47v68.74c0,55-75,55-75,55s-75,0-75-55V324.47H207.64m1.07-1.06H56.65v69.8c0,12.82,4,23.75,12,32.5,6.33,7,15.14,12.56,26.19,16.61a119.92,119.92,0,0,0,26,6.07,107.88,107.88,0,0,0,11.85.86,105,105,0,0,0,11.84-.86,120,120,0,0,0,26-6.07c11-4.05,19.85-9.64,26.19-16.61,7.95-8.75,12-19.69,12-32.5v-69.8Z" transform="translate(0 0.3)"/><rect class="cls-1" x="57.71" y="323.7" width="149.93" height="14.91"/><path d="M169,351.67c.46,0,.58,1.11.39,2.3l-.84-.14c.16-.91-.46-.61-1.91.88a117.92,117.92,0,0,1-14,10.51c-2.2,1.12-5.64,3.32-5.48,3.52h.09l.06.79a1.06,1.06,0,0,1-.47,0c-.52-.2-2.52,2-2.16,2.32a1.33,1.33,0,0,0,.4,0l.16.85a10,10,0,0,0-3.56,1.27l-1.16.85,2.28-.21c2.08-.16,2.24-.12,2.24.68s-3.4,3.36-5.36,3.88c-1.27.31-1.3.8-.23.93l-.07.85a18.78,18.78,0,0,0-2.25.05c-1.8.16-3.28.12-3.36-.08s-.64.4-1.24,1.32l-1.16,1.6-.35.42c-.26,0-.54.23-1.09.73A12.71,12.71,0,0,1,128.5,386c-.58.38-1.25.79-1.88,1.17a12.14,12.14,0,0,1-2.54,1.27c-.12,0-.2-.24-.2-.52s1.24-1.24,2.76-2.07c3.32-1.8,4.36-2.8,6-6,.72-1.32,1.76-3.16,2.28-4.12s.92-1.8.8-1.91-7.68,3.95-11.07,6.23a57.37,57.37,0,0,0-4.84,3.8c-2.28,2-3.16,2.56-3.16,2a24.91,24.91,0,0,1,2.8-2.84c2.12-2,2.71-2.71,2.4-3.11-.44-.57-2.72-1-9.56-2-4-.56-4.16-.56-5.8.29-2.88,1.48-9.83,7.59-9.83,8.63a2.15,2.15,0,0,0,.36.85c.24.36-.08,1.12-1,2.32a5.14,5.14,0,0,0-1.36,3.32,5.61,5.61,0,0,0,.15,1.29l-.82.16a6.74,6.74,0,0,1,.83-5.1,3.46,3.46,0,0,0,.76-2.36c-.2-1.08.4-1.84,5.27-6.43,3.64-3.4,6.6-4.72,10.16-4.6a6.44,6.44,0,0,1,2.8.52,8.15,8.15,0,0,0,2.72.76l2.52.4.35-.56.77.48,1.68.72,1.67.71,2.08-1.15c2.2-1.28,2.72-2.16,3.24-5.64a12.19,12.19,0,0,1,1-3.17,13.81,13.81,0,0,0,.89-2.58l.88.2a.13.13,0,0,0,0,.06,6.61,6.61,0,0,0-.22,2.32c.11,0,1.76-.92,3.64-2a23.89,23.89,0,0,1,3.8-2,8.94,8.94,0,0,0,2.92-2.48c.72-.88,1.72-4.32,1.32-4.32-.56,0-4.76,3.29-7.43,5.76a17.08,17.08,0,0,1-2.68,2.24c-.33,0-.36-.3-.16-.82.6-1.5,3.15-4.78,6-7.57a16.58,16.58,0,0,0,2.6-3.2,31.7,31.7,0,0,0,2-8h.76a21.94,21.94,0,0,1-.72,4.83c-.88,3.64-1.24,4.36-3.4,6.68q-2.46,2.75,1.32-.08c1.56-1.16,2.64-1.32,3-.48s-1.6,5.91-2.48,6.63c-.68.56-.68.64,0,1.28s.76.6,1.4-.12a1.51,1.51,0,0,1,1.36-.56c.44.16,1.91-1,4.64-3.72,8.13-8,13.13-12.8,15.7-15l.74.46a7.78,7.78,0,0,0-.77.75c-.56.63-3.48,3.43-6.52,6.31-8.95,8.52-14.39,14-13.55,13.59a6.21,6.21,0,0,1,1.76-.32c1.16,0,1.8-.36,9-6.07,5.65-4.49,8.07-7,9.5-10.17l.79.34a16.47,16.47,0,0,1-2.74,4.43,7.39,7.39,0,0,0-1.27,1.6,31.78,31.78,0,0,0,3.35-2.8A18.94,18.94,0,0,1,169,351.67ZM144.67,370c.48-.64.8-1.24.72-1.32a7,7,0,0,0-2.12,1c-1.12.64-2.64,1.52-3.44,2-1.91,1.08-4.4,4-3.4,4S143.63,371.34,144.67,370Zm-.8,5.6c0-.4-2-.36-3,.08-.44.16-1.88.63-3.24,1-1.91.52-2.6,1-3.12,1.88-.4.63-.59,1.27-.48,1.4.52.52,9.84-3.6,9.84-4.36Zm-4.08-6.72a6.91,6.91,0,0,0,.88-1.64c0-.52-.84-.44-2.2.24-3.92,1.84-7.2,3-7.43,2.55s-.36-.16-.52.24a1.52,1.52,0,0,0,0,1,.86.86,0,0,1-.24.92,3.87,3.87,0,0,0-.6,1.44,10.93,10.93,0,0,1-.44,1.68c-.24.76.08.68,2.48-.68,4.36-2.39,7.07-4.35,8.07-5.79Z" transform="translate(0 0.3)"/><path d="M168.53,353.83l.84.14a6.51,6.51,0,0,1-.56,1.82,22.94,22.94,0,0,1-2.39,3.24,7.6,7.6,0,0,0-1.56,2.15c.08.09.68-.16,1.32-.55,1.51-.85,2.42-.54,2.47.9l-.79,0c0-.56-1-.24-4.4,1.43-7.71,3.8-14.17,6.42-16.13,6.56l-.05-.79a58.54,58.54,0,0,0,8.78-3.41c6.36-3.31,11.4-7.87,12.4-11.19A2.71,2.71,0,0,0,168.53,353.83Z" transform="translate(0 0.3)"/><path d="M168.65,361.53v.13c0,1.57-2.51,4.36-4.79,5.4-2,.88-2,1.26-.32,1.06l.1.84c-2.26.31-9.61,1.7-13,2.5-1.64.39-4.08.92-5.4,1.15h0l-.16-.85c2-.35,11.22-2.65,13.76-3.47,3.24-1,6.71-3.16,7.87-4.89a9.58,9.58,0,0,0,1.12-1.88Z" transform="translate(0 0.3)"/><path class="cls-7" d="M166.62,354.71c1.45-1.49,2.07-1.79,1.91-.88a3,3,0,0,1-.08.32c-1,3.32-6,7.88-12.39,11.19a59.38,59.38,0,0,1-8.78,3.41h-.1c-.16-.21,3.28-2.4,5.48-3.52A118.11,118.11,0,0,0,166.62,354.71Z" transform="translate(0 0.3)"/><path class="cls-7" d="M163.46,363c3.36-1.67,4.4-2,4.4-1.43a9.32,9.32,0,0,1-1.12,1.87c-1.16,1.72-4.64,3.84-7.88,4.89-2.55.82-11.72,3.12-13.76,3.48a1.67,1.67,0,0,1-.39,0c-.36-.32,1.64-2.52,2.16-2.32a1.2,1.2,0,0,0,.46,0C149.29,369.4,155.75,366.78,163.46,363Z" transform="translate(0 0.3)"/><path d="M167.06,344.87c1,0,1,.25.16,2.92a27.88,27.88,0,0,1-1.26,3.45l-.79-.34a19.21,19.21,0,0,0,.85-2.34c.53-1.86.5-2.38-.27-1.75l-.74-.47C166.17,345.34,166.83,344.87,167.06,344.87Z" transform="translate(0 0.3)"/><path class="cls-7" d="M165.75,346.8c.77-.63.8-.11.27,1.75a19.21,19.21,0,0,1-.85,2.34c-1.42,3.18-3.85,5.68-9.51,10.17-7.2,5.72-7.83,6.12-9,6.09a5.58,5.58,0,0,0-1.76.32c-.85.36,4.6-5.08,13.55-13.6,3-2.87,6-5.67,6.52-6.31A9.2,9.2,0,0,1,165.75,346.8Z" transform="translate(0 0.3)"/><path d="M164.06,368.06c2.52-.4,2.92.24,1.44,2.28a5.85,5.85,0,0,1-2.92,2.24c-1.56.56-1.64.64-.8.92s.9.4.83,2.08l-.79,0c0-.94-.17-1.08-1-1.25a39.11,39.11,0,0,0-9.39,0c-3.4.28-3.92.24-3.92-.28s.8-.68,4.12-.84c4.67-.24,9.67-1,10.87-1.56,1-.56,2.6-2,2.6-2.4,0-.16-.4-.28-.88-.28a5.31,5.31,0,0,0-.53.06l-.11-.83Z" transform="translate(0 0.3)"/><path class="cls-8" d="M164.18,368.9c.48,0,.88.12.88.28,0,.44-1.56,1.84-2.6,2.4-1.2.6-6.2,1.32-10.87,1.56-3.32.16-4.12.32-4.12.84s.52.56,3.92.28a39.11,39.11,0,0,1,9.39,0c.87.17,1.06.31,1,1.25,0,.18,0,.39,0,.64-.12,1.55-.2,1.63-2.32,2.39-1.72.64-3.24.85-7.07.85-6.6,0-6.16.76.71,1.16a32,32,0,0,1,5.64.6c.17.16-.21,1.16-.8,2.28l-1.08,2-4.92-.06a26.48,26.48,0,0,0-4.88.24,9.76,9.76,0,0,0,3.08,1,9.25,9.25,0,0,1,3.2,1.2c.2.56-2.84,1.36-5,1.36-2,0-2.12.64-.12,1.49,1.49.63,1.49.63.48,1a4.72,4.72,0,0,1-1,.19,12.28,12.28,0,0,1-2.1.05c-1.16-.12-2.13,0-2.13.16a3.4,3.4,0,0,0,1.12,1.32c1.45,1.25,1,1.62-1.57,1.07l-.19,0c-2.55-.59-3.07-.35-1.84.77.85.76,1.16,1.6.69,1.6a19,19,0,0,1-4.4-2.44c-1-.68-2-1.12-2.13-1-.32.36,1.64,2,3.72,3.12,1.12.59,1.4.91.92,1-1.36.28-7.28-3.35-10.76-6.63-.88-.8-1.55-1.2-1.71-1-.8,1.27,10.43,8.87,13.07,8.87.4,0,1.27.85,2,1.88a33.12,33.12,0,0,0,2.79,3.56,5.46,5.46,0,0,1,1.49,2.6c0,.85.92,3.44,2.64,7.52l.6,1.35-1.64-.27c-1.8-.29-3-.92-5.36-2.92a5.46,5.46,0,0,0-1.8-1.2,4.31,4.31,0,0,1-1.36-.68,4.19,4.19,0,0,0-3.69-.36,11,11,0,0,0-3,1.52,14.87,14.87,0,0,0-2.44,1.91,1.23,1.23,0,0,1-1,.48,2.69,2.69,0,0,0-1.52,1.24c-.85,1.24-.85,1.24-1.76.52a3.82,3.82,0,0,0-2.2-.76c-1.16,0-1.2,0-.44-.6a11.14,11.14,0,0,0,4-5.2c.52-1.32,1.16-2.39,1.4-2.39s.44-.13.44-.33v-.63c0-1.12-7.08-4.4-8.07-3.8a4.79,4.79,0,0,1-2.28-1,10.55,10.55,0,0,0-2.32-1.24c-.68,0-2.52-2.36-2.52-3.16a2.4,2.4,0,0,0-.8-1.44,2.57,2.57,0,0,1-.71-1.3,3.06,3.06,0,0,1-.09-.74c0-1.15-.76-2.47-1.52-2.59a35.22,35.22,0,0,0-6.65-.33,12.91,12.91,0,0,0-2,.21,3,3,0,0,0-1.68,1.27c-.52,1-.56,1-.59.2,0-1.19,2.31-2.51,5-2.8,3.24-.35,3.36-1.07.12-.83a11.4,11.4,0,0,0-4.76,1.36c-2.31,1.27-5.15,3.91-5.15,4.83,0,.32-.16.44-.4.32a1,1,0,0,1-.25-.51,5.53,5.53,0,0,1-.15-1.28A5.11,5.11,0,0,1,96,389.94c.92-1.2,1.24-2,1-2.32a2.28,2.28,0,0,1-.36-.85c0-1,6.95-7.16,9.83-8.64,1.64-.85,1.8-.85,5.8-.28,6.84,1,9.12,1.44,9.56,2,.31.4-.29,1.16-2.4,3.12a24.91,24.91,0,0,0-2.8,2.84c0,.6.88.08,3.16-2a58.87,58.87,0,0,1,4.83-3.8c3.4-2.28,10.84-6.48,11.08-6.23s-.24.95-.8,1.91-1.56,2.8-2.28,4.12c-1.68,3.18-2.72,4.19-6,6-1.52.84-2.76,1.76-2.76,2.08s.08.52.2.52a12.41,12.41,0,0,0,2.54-1.28l.72.26a.48.48,0,0,0-.26.43c0,.8,2.16.8,2.92,0a3,3,0,0,1,2-.52c1.44,0,3.56-.8,3.8-1.52.08-.21-.36-.6-1-.85l-1.12-.44,1.32,0a9.45,9.45,0,0,0,5.39-2.35c1.49-1.4,1.4-2.09-.32-2.09a5.15,5.15,0,0,1-.59,0c-1.06-.13-1-.61.23-.93,2-.51,5.36-2.95,5.36-3.87s-.16-.85-2.24-.68l-2.28.21,1.16-.85a9.64,9.64,0,0,1,3.56-1.27h0c1.32-.24,3.76-.76,5.4-1.16,3.37-.8,10.71-2.19,13-2.5Zm-51.89,19.54c1,0,1.07-.59.15-1s-1-.31-1,.37c0,.32.37.6.81.6Zm-10.56-3.79c1.08-1.44,1.2-1.8.48-1.8-.28,0-1.2,1-2,2.08-1.8,2.47-2,3.51-.52,3.51,1.08,0,1.92-1.16,1.4-2-.2-.36,0-1,.64-1.8Zm-4.24,5.59a1,1,0,0,0,.4-.85c0-.33-.15-.55-.4-.55s-.4.36-.4.85.21.68.4.56Z" transform="translate(0 0.3)"/><path d="M161.22,418.23c2.6,2.21,3.44,3.72,2.48,4.4a3,3,0,0,0-.72,1.8,4.09,4.09,0,0,1-.1.61l-.71-.15a2.5,2.5,0,0,0-.07-.94c-.36-1.84-1.16-2.88-3.56-4.67-1.12-.84-2.68-2.13-3.4-2.8a5.69,5.69,0,0,0-1.68-1.24c-.36,0-.92-1.24-.63-1.52s2.39,1.49,6.35,4.89c3.24,2.76,3.28,2.07,0-.8-1.49-1.28-3-2.77-3.52-3.24a24.66,24.66,0,0,0-2.32-2c-.85-.6-2.35-1.88-3.43-2.8l-2-1.72,1.56,4.27c.46,1.25.87,2.39,1.16,3.2l-.77.23-.6-1.35c-1.71-4.08-2.63-6.68-2.63-7.52a5.46,5.46,0,0,0-1.49-2.6,34.52,34.52,0,0,1-2.8-3.56c-.71-1-1.6-1.87-2-1.87-2.64,0-13.87-7.6-13.07-8.88.16-.24.84.16,1.72,1,3.48,3.28,9.4,6.92,10.76,6.64.48-.12.2-.44-.92-1-2.08-1.12-4-2.76-3.72-3.12.16-.12,1.12.32,2.12,1a19.82,19.82,0,0,0,4.4,2.44c.48,0,.16-.85-.68-1.6-1.24-1.12-.72-1.36,1.84-.76l.18,0-.17.79c-.26-.11-.16.37.27,1.21s.32,1-.24,1.36-.64.63.4,2.23a33.21,33.21,0,0,0,3.12,3.77,18.49,18.49,0,0,1,2.4,3,19.33,19.33,0,0,0,3.08,3.08c1.43,1.2,3.59,3.12,4.79,4.25S159.9,417.15,161.22,418.23Z" transform="translate(0 0.3)"/><path d="M162.17,424.89l.71.15c-.32,1.28-1.24,1.67-2.18.83s-1.43-.62-1.59.43l-.78,0c0-.12,0-.23,0-.36.16-1.55.08-1.79-1.48-3.18a42,42,0,0,0-3.72-3c-1.16-.8-2.13-1.68-2.13-2a.93.93,0,0,1,.11-.47.17.17,0,0,1,.13-.09c.36,0,4.89,3.55,7.48,5.87C161,425.08,162,425.63,162.17,424.89Z" transform="translate(0 0.3)"/><path d="M161.83,375.55l.78,0c0,.18,0,.38,0,.6-.12,2.36-.16,2.44-1.52,2.88s-1.4.6-1.28,1.84a7.23,7.23,0,0,1-1,3.35c-.74,1.32-1,1.77-1.74,2l-.18-.76,1.08-2c.6-1.13,1-2.13.8-2.28a32.23,32.23,0,0,0-5.64-.61c-6.87-.4-7.31-1.11-.71-1.15,3.83,0,5.35-.2,7.07-.85,2.13-.76,2.2-.85,2.32-2.4C161.8,375.94,161.81,375.73,161.83,375.55Z" transform="translate(0 0.3)"/><path class="cls-7" d="M162.1,424a2.5,2.5,0,0,1,.07.94c-.17.74-1.21.19-3.39-1.78-2.6-2.32-7.12-5.87-7.48-5.87q-.06,0-.12.09l-.53-.43c.26,0,.42,0,.42-.17s-.15-.5-.4-1.21-.69-1.94-1.16-3.19L148,408.05l2,1.72c1.08.92,2.6,2.2,3.44,2.8a26,26,0,0,1,2.32,2c.48.47,2,1.95,3.52,3.23,3.24,2.88,3.2,3.56,0,.8-4-3.39-6.16-5-6.36-4.88s.28,1.52.64,1.52a5.5,5.5,0,0,1,1.68,1.24c.72.68,2.28,2,3.4,2.8C160.94,421.07,161.74,422.11,162.1,424Z" transform="translate(0 0.3)"/><path d="M158.33,426.26l.78,0a4.12,4.12,0,0,0-.05.7c0,2-.92,2.52-2,1.2l-.16-.21.63-.49a.31.31,0,0,0,.25.13C158,427.63,158.2,427.05,158.33,426.26Z" transform="translate(0 0.3)"/><path class="cls-7" d="M156.9,422.71c1.56,1.4,1.64,1.64,1.49,3.19,0,.12,0,.24,0,.35-.13.79-.33,1.37-.51,1.37a.31.31,0,0,1-.25-.13.51.51,0,0,1-.11-.31,17.89,17.89,0,0,0-2.68-3.48c-1.52-1.64-3.08-3.43-3.56-4s-1-.91-1.36-.79.53,1.36,2.44,3.59c2.84,3.32,3,3.52,2.84,5.24-.12,1.44-.36,1.88-1.12,2.24-2,.88-2.44.6-3-1.68-.24-1.12-.85-3.08-1.24-4.28s-.88-2.44-1-2.76-.32-.44-.59-.16,0,1.24.59,3a32.17,32.17,0,0,1,1.25,4.2c.23,1.64.23,1.68-1.21,2.16a4.42,4.42,0,0,1-1.21.26c-1.09,0-1.18-1.27-1.18-5.86,0-3.56-.16-5.31-.48-5.64s-.48-.11-.44,1.49c.19,4.16-.08,9.12-.48,8.71a35.29,35.29,0,0,1-.48-6.92c-.08-3.92-.28-6.63-.52-6.71h0l.44-.79a20.35,20.35,0,0,0,6.14,1.93l.53.42a1.12,1.12,0,0,0-.11.47c0,.28,1,1.16,2.13,2A40.75,40.75,0,0,1,156.9,422.71Z" transform="translate(0 0.3)"/><path d="M157.58,427.5l-.64.49-.68-.88v1.21c0,1.4-.76,2.12-3.16,3-1.56.59-1.8.59-2.2.08s-.68-.52-2-.12a4.29,4.29,0,0,1-1.27.26l0-.88a4.42,4.42,0,0,0,1.21-.26c1.44-.48,1.44-.52,1.2-2.16a32.23,32.23,0,0,0-1.23-4.21c-.64-1.71-.84-2.71-.6-2.95s.48-.24.6.15.55,1.57,1,2.77,1,3.15,1.24,4.28c.53,2.27,1,2.54,3,1.67.76-.36,1-.79,1.12-2.24.12-1.71,0-1.91-2.83-5.23-1.92-2.24-2.77-3.52-2.45-3.6s.92.28,1.36.8,2.05,2.36,3.56,4a17.84,17.84,0,0,1,2.68,3.47A.56.56,0,0,0,157.58,427.5Z" transform="translate(0 0.3)"/><path d="M156.86,385.45l.18.76a6.25,6.25,0,0,1-1.3.16c-1.84.12-1.88.16-1.27,1a3.87,3.87,0,0,1,.6,1.12c0,.36-1.88,1-3.76,1.36l-1.52.24.88,1c1,1.12.83,1.28-2.32,1.65l-.57.05-.09-.82a4.74,4.74,0,0,0,1-.2c1-.35,1-.35-.48-1-2-.84-1.91-1.48.12-1.48,2.2,0,5.23-.8,5-1.36a9.06,9.06,0,0,0-3.19-1.2,9.64,9.64,0,0,1-3.08-1,26.39,26.39,0,0,1,4.88-.24Z" transform="translate(0 0.3)"/><path d="M151.06,416.72c0,.12-.15.17-.42.17a20.54,20.54,0,0,1-6.15-1.92,5,5,0,0,1-1.14-.73,5.14,5.14,0,0,0-2-1.16c-1-.24-1.12-.21-.85.44a34,34,0,0,1,.49,4.37l-.86.06c-.15-1.43-.33-2.76-.51-3.59-.56-2.8-.72-3.12-1.72-3.32a3.6,3.6,0,0,0-1.6,0l-.22-.76a4.24,4.24,0,0,1,3.7.36,4.21,4.21,0,0,0,1.35.68,5.46,5.46,0,0,1,1.8,1.2c2.4,2,3.56,2.64,5.36,2.92l1.64.27.76-.23A11.29,11.29,0,0,1,151.06,416.72Z" transform="translate(0 0.3)"/><path d="M147.69,391.92l.09.83a6.87,6.87,0,0,0-1.91.34,2.8,2.8,0,0,0,.48.92c.72,1.16.12,2-1.4,2a3.1,3.1,0,0,1-1.8-.48,1.07,1.07,0,0,0-.31-.25l.17-.79c2.52.54,3,.17,1.58-1.08a3.33,3.33,0,0,1-1.12-1.32c0-.2,1-.28,2.13-.16A12.19,12.19,0,0,0,147.69,391.92Z" transform="translate(0 0.3)"/><path d="M147.65,430.69l0,.88a3.58,3.58,0,0,1-1.6-.46c-.84-.4-1.4-.48-1.4-.24s-.48.36-1.08.28c-.88-.08-1.32-.52-2.08-2.08s-1-2.64-1.12-6.8c0-.59,0-1.23-.09-1.88l.83-.05c.43,6.32.88,8.54,2,9.56.76.69.8.64.64-6.79-.08-4.81,0-7.36.27-7.36h0c.24.08.44,2.8.52,6.72a35.23,35.23,0,0,0,.48,6.91c.4.4.68-4.55.48-8.71,0-1.59,0-1.87.44-1.48s.48,2.07.48,5.63C146.47,429.43,146.56,430.69,147.65,430.69Z" transform="translate(0 0.3)"/><path class="cls-7" d="M145.39,368.66c.08.08-.24.68-.72,1.32-1,1.36-7.24,5.68-8.24,5.68s1.49-3,3.4-4c.8-.44,2.32-1.32,3.44-2A7,7,0,0,1,145.39,368.66Z" transform="translate(0 0.3)"/><path class="cls-7" d="M144.5,415l-.44.78c-.27,0-.35,2.55-.27,7.36.16,7.44.12,7.48-.64,6.8-1.14-1-1.59-3.25-2-9.57,0-.1,0-.2,0-.31-.05-.74-.1-1.46-.15-2.14a34,34,0,0,0-.49-4.37c-.28-.64-.16-.68.85-.44a5.22,5.22,0,0,1,2,1.16A5.09,5.09,0,0,0,144.5,415Z" transform="translate(0 0.3)"/><path d="M143,344.07c.81,0,1.22,1.05,1.2,2.81h-.76v-.16c0-.6-.16-1-.32-1-.48,0-2.09,3.52-2.09,4.6,0,.6-.23,1-.59,1s-1.32,1.32-2.24,2.88-2.64,4.63-3.92,6.71a27,27,0,0,0-2.22,4.51,11.16,11.16,0,0,0-.43,1.5l-.88-.2a.7.7,0,0,1,0-.14c.16-.68.21-1.27.12-1.27a44.44,44.44,0,0,0-3,3.36,47.36,47.36,0,0,1-3.2,3.52,21.09,21.09,0,0,0-2.44,2.91l-2.08,2.76-.76-.48.8-1.27c.64-1,3.2-4.08,5.72-6.92l4.56-5.07L133,358c1.32-3.32,2.8-7.52,3.28-9.28s1-3.68,1.27-4.31a3.2,3.2,0,0,1,.56-1.08c.56,0,1.84,1.59,2.2,2.71l.44,1.36,1-1.63C142.27,344.79,142.83,344.07,143,344.07Zm-4.08,6.8a4.38,4.38,0,0,0,.32-4.8c-.36-.68-.68-1.2-.8-1.2a5.72,5.72,0,0,0-.6,1.68,95.21,95.21,0,0,1-4,11.79,10.13,10.13,0,0,0-1,2.8c.16.21,1.08-1.32,3.44-5.67,1-1.76,2.16-3.83,2.68-4.6Z" transform="translate(0 0.3)"/><path class="cls-7" d="M143.47,346.71v.16a31.7,31.7,0,0,1-2,8,16.18,16.18,0,0,1-2.59,3.2c-2.89,2.79-5.44,6.07-6,7.57l-.76-.26a27,27,0,0,1,2.23-4.51c1.27-2.08,3-5.12,3.92-6.72s1.91-2.88,2.23-2.88.6-.4.6-1c0-1.08,1.6-4.6,2.08-4.6C143.31,345.67,143.47,346.12,143.47,346.71Z" transform="translate(0 0.3)"/><path class="cls-7" d="M143.11,358.47c.4,0-.6,3.43-1.32,4.32a9.11,9.11,0,0,1-2.92,2.47,24.36,24.36,0,0,0-3.8,2c-1.88,1.08-3.51,2-3.64,2a5.85,5.85,0,0,1,.22-2.32.13.13,0,0,1,0-.06,11.16,11.16,0,0,1,.43-1.5l.75.26c-.21.52-.17.82.16.82a17.08,17.08,0,0,0,2.68-2.24C138.35,361.75,142.55,358.47,143.11,358.47Z" transform="translate(0 0.3)"/><path class="cls-7" d="M140.87,375.66c1-.44,3-.48,3-.08,0,.76-9.32,4.88-9.84,4.36-.11-.12.08-.76.48-1.4.52-.92,1.2-1.36,3.12-1.88C139,376.3,140.43,375.82,140.87,375.66Z" transform="translate(0 0.3)"/><path d="M141.11,420a2.83,2.83,0,0,0,0,.3l-.83.05c-.05-.8-.12-1.64-.2-2.43l.86-.07C141,418.57,141.06,419.29,141.11,420Z" transform="translate(0 0.3)"/><path d="M140.07,380.05c1.72,0,1.8.69.32,2.09a9.47,9.47,0,0,1-5.4,2.35l-1.32,0,1.12.44c.6.24,1,.64,1,.85-.24.72-2.36,1.56-3.79,1.52a3,3,0,0,0-2,.52c-.76.8-2.92.8-2.92,0a.48.48,0,0,1,.26-.43,1.44,1.44,0,0,1,.74-.17c.63,0,1-.24,1-.63a.36.36,0,0,1,.15-.36c.23-.16.79-.14,2,0,2.15.27,3.48-.29,1.83-.81a3.83,3.83,0,0,1-1.43-.87c-.25-.24-.41-.37-.6-.37l.35-.43,2.57-.2a12.57,12.57,0,0,0,4.23-1.12c2-1,2.44-1.49,1.22-1.57l.07-.85Z" transform="translate(0 0.3)"/><path class="cls-7" d="M140.67,367.22a6.72,6.72,0,0,1-.88,1.64c-1,1.44-3.71,3.4-8.07,5.8-2.4,1.36-2.72,1.44-2.48.68a10.93,10.93,0,0,0,.44-1.68,3.9,3.9,0,0,1,.6-1.44.86.86,0,0,0,.25-.92,1.42,1.42,0,0,1,0-1c.15-.4.35-.52.51-.24s3.52-.72,7.44-2.55C139.83,366.78,140.67,366.7,140.67,367.22Z" transform="translate(0 0.3)"/><path class="cls-7" d="M139.41,380.88c1.22.09.76.54-1.22,1.57a12.41,12.41,0,0,1-4.23,1.12l-2.57.2,1.17-1.6c.59-.92,1.15-1.48,1.24-1.31s1.55.23,3.35.07A19,19,0,0,1,139.41,380.88Z" transform="translate(0 0.3)"/><path class="cls-7" d="M139.27,346.07a4.36,4.36,0,0,1-.32,4.8c-.52.76-1.72,2.84-2.68,4.6-2.35,4.35-3.27,5.88-3.44,5.67a9.6,9.6,0,0,1,1-2.79,97.77,97.77,0,0,0,4-11.8,5.29,5.29,0,0,1,.61-1.68A3.64,3.64,0,0,1,139.27,346.07Z" transform="translate(0 0.3)"/><path d="M136.06,410.32l.21.76a5,5,0,0,0-3.15,2.48c-.28.56-.72.85-1.08.72s-.64.16-.8.76c-.24,1-1.16,1.36-1.48.48-.28-.68-1.44.88-1.49,2s-.4,1.44-1,1-4.52,2-9.36,5.6c-1.88,1.4-3.59,2.68-3.83,2.84s0,.6.6,1.08c1.91,1.49,2.54,5.56,1.08,6.59a6,6,0,0,1-.64.38l-.17-.54a.87.87,0,0,0,.67-.44c.4-.6.06-.8-.42-.36l0-.82c.6,0,.67-.21.47-.66s-.36-1.2-.48-1.8a3.15,3.15,0,0,0-1.16-1.72c-1.6-1-1.24-2.28,1.16-4,1.12-.8,3.16-2.24,4.48-3.2s3.2-2.16,4.2-2.72c2.39-1.31,2.6-2.31.52-2.31-1.36,0-2,.43-5.28,3.39a24,24,0,0,1-4.67,3.64c-.52.12-1,.4-1,.64s-.21.24-.44.12c-.49-.32-.19-1.83.63-3.76l.43-.92a5,5,0,0,0,.72-2.48c-.19-.48-.36-.66-.72-.57l-.08-.6c.24,0,.31-.23,0-.63a1,1,0,0,0-.85-.44h-.08l0-.79h.14c.8,0,3.48-2.4,3.28-3s.44-1.84,1-1.84,4.33-2.84,5.48-4.12c.56-.56.76-1.08.52-1.24a.45.45,0,0,0-.63.12h0c-.28.52-1.2.16-3.28-1.24a7.69,7.69,0,0,0-2.2-1.12c-.72,0-3.4-2.6-3.72-3.59-.12-.44-.4-.8-.6-.8s-.72-1.11-1.13-3l.82-.15a2.65,2.65,0,0,0,.71,1.3,2.4,2.4,0,0,1,.8,1.44c0,.8,1.84,3.16,2.52,3.16a10.81,10.81,0,0,1,2.32,1.23,4.79,4.79,0,0,0,2.28,1c1-.6,8.07,2.68,8.07,3.8v.64c0,.2-.2.32-.44.32s-.88,1.08-1.4,2.4a11.11,11.11,0,0,1-4,5.19c-.76.56-.72.56.44.6a3.89,3.89,0,0,1,2.25.79c.92.72.92.72,1.76-.52a2.69,2.69,0,0,1,1.52-1.24,1.23,1.23,0,0,0,1-.48,13.8,13.8,0,0,1,2.44-1.91A11,11,0,0,1,136.06,410.32Zm-8.71-2.68c.44-1.16.4-1.36-.48-2.24a2.84,2.84,0,0,0-1.48-.92,8.44,8.44,0,0,0-2.32,1.88,25,25,0,0,1-3.3,2.88,5.51,5.51,0,0,0-1.84,2.08c-.36,1-.28,1.08.68,1.24,2.08.36,3,.24,4.25-.64.68-.48,1.32-1,1.44-1.08s.76-.6,1.39-1.08a5,5,0,0,0,1.67-2.12Zm-5.2,6.56c1.2-1.12.76-1.28-.68-.2a7.73,7.73,0,0,1-2.16,1c-1.75.44-3.43,1.76-3.43,2.76a4.88,4.88,0,0,1-.76,2.12,14,14,0,0,0-1,2.13c-.24.8-.2.88.52.48,1.64-.88,6.91-6.16,6.72-6.72-.12-.33.24-1,.84-1.57Zm-4.91.6c.92-.64,1.24-1,.92-1.24a2.73,2.73,0,0,0-2.88.28c-.72.56-.72.63-.12,1.27s.76.61,2.08-.31Z" transform="translate(0 0.3)"/><path class="cls-8" d="M133.07,385.45c1.65.52.32,1.08-1.83.8-1.22-.13-1.78-.16-2,0l-.74-.25a15.31,15.31,0,0,0,1.47-1.07c.54-.5.83-.73,1.08-.73s.35.13.6.37A3.73,3.73,0,0,0,133.07,385.45Z" transform="translate(0 0.3)"/><path class="cls-7" d="M130.92,365.26a2.75,2.75,0,0,1-.13,1.28.78.78,0,0,1,0,.14,13.9,13.9,0,0,1-.89,2.59,11.84,11.84,0,0,0-1,3.19c-.52,3.47-1,4.35-3.24,5.63l-2.08,1.16-1.67-.71-1.7-.72,2.08-2.77a20.34,20.34,0,0,1,2.44-2.91,45.12,45.12,0,0,0,3.2-3.52C129.48,366.78,130.84,365.26,130.92,365.26Z" transform="translate(0 0.3)"/><path class="cls-8" d="M128.49,386l.74.26a.36.36,0,0,0-.15.36c0,.4-.36.64-1,.64a1.44,1.44,0,0,0-.74.16l-.73-.25C127.25,386.79,127.91,386.38,128.49,386Z" transform="translate(0 0.3)"/><path class="cls-7" d="M126.88,405.4c.88.88.92,1.08.48,2.24a5.07,5.07,0,0,1-1.68,2.12c-.64.49-1.28,1-1.4,1.09s-.76.59-1.44,1.07c-1.24.88-2.16,1-4.25.64-1-.16-1-.28-.68-1.24a5.53,5.53,0,0,1,1.84-2.08,24.58,24.58,0,0,0,3.32-2.88,8.44,8.44,0,0,1,2.32-1.88C125.68,404.44,126.35,404.88,126.88,405.4Z" transform="translate(0 0.3)"/><path class="cls-9" d="M124.4,416.44c2.08,0,1.88,1-.52,2.32-1,.55-2.88,1.79-4.2,2.71s-3.36,2.4-4.48,3.2c-2.39,1.68-2.76,2.92-1.15,4a3.19,3.19,0,0,1,1.15,1.72c.13.6.36,1.4.48,1.8s.13.62-.47.66l-.49,0c-1.08,0-1.23-.12-1.23-1.12a1.46,1.46,0,0,0-.88-1.49,3.07,3.07,0,0,1-1.36-1.8,3.09,3.09,0,0,0-1.44-1.8,10.9,10.9,0,0,1-2.64-2.12,9.27,9.27,0,0,0-1.31-1.11l.74-.4c2.37,1.36,3,.05,1.44-3.56l-.23-.67c-.32-.95-.44-1.67-.25-1.77.69-.44,1.25.07,1.58,1.42,0,.23.1.5.14.78.32,2.44,1.6,4.32,2.44,3.6a1.7,1.7,0,0,0,.56-1.2,1.33,1.33,0,0,1,.44-1,.33.33,0,0,0,.13-.13l.84,0c-.84,1.93-1.13,3.44-.64,3.75.24.12.44.08.44-.12s.44-.52,1-.63a23.66,23.66,0,0,0,4.68-3.64C122.44,416.88,123,416.48,124.4,416.44Z" transform="translate(0 0.3)"/><path class="cls-9" d="M118.16,413.56c.32.2,0,.6-.92,1.24-1.32.92-1.43.92-2.08.32s-.6-.72.12-1.28A2.73,2.73,0,0,1,118.16,413.56Z" transform="translate(0 0.3)"/><path class="cls-10" d="M115.26,433.63c.48-.44.81-.25.43.35a.85.85,0,0,1-.68.44c-.24,0-.24-.24.08-.59A1.63,1.63,0,0,1,115.26,433.63Z" transform="translate(0 0.3)"/><path d="M115.21,432.81l.05.82a1.63,1.63,0,0,0-.17.2c-.33.35-.33.6-.09.6l.18.54a2.08,2.08,0,0,1-.84.24c-.32,0-.47-.18-.33-.55s-.08-.67-.56-.83a1.19,1.19,0,0,1-.76-1.24,2.86,2.86,0,0,0-1.16-2,4.39,4.39,0,0,1-1.4-2,1.63,1.63,0,0,0-2.88-.68c-.72,1-2.84,1.56-3.48.88-.36-.4-.36-.56,0-.68a5,5,0,0,0,1.32-1.8c1-1.88.6-2.6-1.36-2.8-1-.08-1.32-.32-1.4-1s-.32-.8-.72-.63c-.78.28-.71-.29.14-1.3l.4.09a.58.58,0,0,0-.1.12c-.28.46.08.52.71.17l.8.41a.42.42,0,0,0-.15.11c-.64.63-.08,1.32,1.08,1.32a2.77,2.77,0,0,1,1.33.56,9.27,9.27,0,0,1,1.31,1.11,11.26,11.26,0,0,0,2.64,2.13,3,3,0,0,1,1.44,1.8,3.14,3.14,0,0,0,1.36,1.8,1.42,1.42,0,0,1,.88,1.48c0,1,.15,1.12,1.23,1.12ZM107.09,426c0-.24-.08-.4-.16-.4s-.32.16-.43.4,0,.4.16.4a.43.43,0,0,0,.43-.4Zm-.8,1.4c.32-.36.32-.6.08-.6-.48,0-1,.76-.76,1,.08.08.4-.08.68-.44Z" transform="translate(0 0.3)"/><path class="cls-9" d="M114.85,417.08a5.52,5.52,0,0,1-.72,2.48c-.16.31-.3.63-.43.92l-.84,0a2.91,2.91,0,0,0,.11-1.66c-.16-1.21,0-1.65.44-2a3.34,3.34,0,0,1,.72-.33C114.49,416.43,114.67,416.59,114.85,417.08Z" transform="translate(0 0.3)"/><path class="cls-10" d="M114.08,415.28c.27.4.2.63,0,.63a1.23,1.23,0,0,1-.77-.42l-.31-.34c-.2-.24-.13-.29.19-.3h.09A1,1,0,0,1,114.08,415.28Z" transform="translate(0 0.3)"/><path d="M114.05,415.91l.07.6a3.34,3.34,0,0,0-.72.33c-.48.31-.59.75-.43,2a2.89,2.89,0,0,1-.12,1.66.3.3,0,0,1-.12.13,1.29,1.29,0,0,0-.44,1,1.72,1.72,0,0,1-.56,1.2c-.85.72-2.13-1.16-2.44-3.6a7.22,7.22,0,0,0-.15-.78l.85-.23c0,.17.08.36.13.58.2.67.36.8.8.43a.86.86,0,0,1,.88-.2c.16.13.28-.32.16-.92s0-1.27.28-1.4a.92.92,0,0,0,.44-.67c0-.24-.12-.36-.3-.36l.58-.5.32.34A1.27,1.27,0,0,0,114.05,415.91Zm-2.68,5a.86.86,0,0,0,0-.77c-.12-.15-.24.08-.2.52S111.25,421.23,111.37,420.92Z" transform="translate(0 0.3)"/><path d="M113.15,414.05v.79c-.32,0-.39.06-.19.3l-.58.5a1.43,1.43,0,0,0-.91.6,1.77,1.77,0,0,1-1,.6c-.51,0-.64.35-.45,1.34l-.85.23c-.33-1.35-.89-1.86-1.57-1.42l-.07-.56c.29,0,.41-.17.19-.32a4.53,4.53,0,0,1-.68-.63.23.23,0,0,0-.17-.1l.82-.36c.1.18.29.21.62.21.77,0,.85-.2.73-3.07-.08-2.13-.34-3.23-.73-3.23l.3-.52c.08,0,.11-.11.11-.45a1.12,1.12,0,0,0-.41-.92A.45.45,0,0,0,108,407l.18-.38c1.27.37,1.83,2.21,1.72,5.73-.08,2.77,0,3.32.55,3.32a2.66,2.66,0,0,0,1.4-.79A3.25,3.25,0,0,1,113.15,414.05Z" transform="translate(0 0.3)"/><path d="M112.77,394.15l-.82.15c-.07-.34-.15-.7-.22-1.09-.2-.88-.4-1-1.2-.88a2.8,2.8,0,0,1-1.91-.44,6,6,0,0,0-3.12-.64c-.36,0-.67,0-.94,0l0-.78a36.07,36.07,0,0,1,6.65.32c.75.12,1.52,1.45,1.52,2.6A3,3,0,0,0,112.77,394.15Z" transform="translate(0 0.3)"/><path d="M112.44,387.49c.92.36.81,1-.15,1-.44,0-.81-.28-.81-.6C111.48,387.17,111.57,387.13,112.44,387.49Z" transform="translate(0 0.3)"/><path class="cls-9" d="M112.39,415.64c.18,0,.3.12.3.36a.92.92,0,0,1-.44.67c-.24.13-.36.77-.29,1.4s0,1.05-.15.92a.86.86,0,0,0-.88.2c-.44.37-.6.24-.8-.43-.06-.22-.1-.41-.13-.58-.2-1-.06-1.34.45-1.34a1.77,1.77,0,0,0,1-.6A1.43,1.43,0,0,1,112.39,415.64Z" transform="translate(0 0.3)"/><path class="cls-9" d="M109,412.16c.12,2.88,0,3.08-.72,3.08-.34,0-.53,0-.62-.22a2.67,2.67,0,0,1,.06-1.34,4.46,4.46,0,0,0-.16-2.28,1.71,1.71,0,0,1,0-1.64c.25-.55.48-.82.67-.82C108.67,408.93,108.94,410.05,109,412.16Z" transform="translate(0 0.3)"/><path class="cls-10" d="M108.29,407a1.11,1.11,0,0,1,.4.92c0,.36,0,.49-.11.45a1.16,1.16,0,0,1-.29-.37c-.42-.64-.5-1.09-.26-1.09A.62.62,0,0,1,108.29,407Z" transform="translate(0 0.3)"/><path d="M108.58,408.41l-.3.52c-.19,0-.43.28-.67.83a1.71,1.71,0,0,0,0,1.64,4.46,4.46,0,0,1,.16,2.28c-.13.75-.17,1.14-.06,1.34l-.83.36c-.1,0-.15.13-.15.37a.69.69,0,0,0,.68.69h.13l.07.56c-.2.09-.07.81.24,1.76L107,419a1.71,1.71,0,0,0-.47-.53,2.17,2.17,0,0,1-.6-1.4,1.35,1.35,0,0,0-.48-1.12c-.4-.12-.4-.32-.08-.68s.08-1.36-1.24-4.12c-1.19-2.52-2-3.64-2.52-3.72h-.12l.09-.59c.27,0,.31-.09.15-.36a.81.81,0,0,0-.57-.32l.09-.38c1.26.33,2.68,1.45,2.68,2.26a24.8,24.8,0,0,0,1.2,3.08c.8,1.76,1.36,2.55,1.6,2.32s.24-.88,0-1.72a2.37,2.37,0,0,1,.08-2.32,4.21,4.21,0,0,0,.44-2c-.12-.85,0-1,.8-.85l.24.05L108,407c-.25,0-.16.46.25,1.09A1.16,1.16,0,0,0,108.58,408.41Z" transform="translate(0 0.3)"/><path d="M108.05,419.43c1.5,3.61.92,4.92-1.45,3.56a8.93,8.93,0,0,1-.91-.6c-1.14-.82-1.74-1.12-2.09-1l-.8-.41a2.19,2.19,0,0,0,.29-.17c.52-.32.52-.39-.08-.39a1.3,1.3,0,0,0-.82.27l-.4-.09.34-.39c1-1,1-1.11.32-1.84-1-1.15-4.2-3.15-5-3.15a2.46,2.46,0,0,1-1.4-.8,2.29,2.29,0,0,0-1.27-.8c-1,0-.52-1.16.72-1.84,1.64-.85,2.84-.32,5.83,2.55.85.76,2.13,1.2,2.13.72l.7,0c-.31,1.42-2,1.1-4.42-.88-1.27-1-2.48-1.72-2.68-1.6a.74.74,0,0,0,.32,1.4,19.86,19.86,0,0,1,5.28,3.16,12.48,12.48,0,0,0,3.52,2.64c.8.24,1.11-.26.75-.87l.85-.22A4.65,4.65,0,0,0,108.05,419.43Zm-.28,2.68a.8.8,0,0,0,0-.75c-.12-.17-.24.07-.2.51s.12.56.24.24Zm-11.6-9.43c.16-.12-.08-.24-.52-.21s-.55.12-.23.24a.83.83,0,0,0,.75,0Z" transform="translate(0 0.3)"/><path class="cls-11" d="M107.73,421.36a.8.8,0,0,1,0,.75c-.12.32-.24.21-.24-.24S107.61,421.19,107.73,421.36Z" transform="translate(0 0.3)"/><path class="cls-10" d="M107.69,416.11c.21.15.11.3-.19.32h-.09a.68.68,0,0,1-.72-.65v0c0-.24,0-.37.15-.37a.23.23,0,0,1,.17.1A5.08,5.08,0,0,0,107.69,416.11Z" transform="translate(0 0.3)"/><path class="cls-9" d="M107,419c.36.62.06,1.12-.75.87a12.53,12.53,0,0,1-3.52-2.64A19.7,19.7,0,0,0,97.41,414a.74.74,0,0,1-.32-1.4c.21-.12,1.4.6,2.68,1.6,2.41,2,4.11,2.3,4.42.88,0,0,0-.08,0-.12.2-1.28-2.2-6.2-3.12-6.44-1.27-.35-.9-1.34.36-1.18l.12,0c.56.08,1.32,1.2,2.52,3.72,1.32,2.76,1.6,3.76,1.24,4.12s-.32.56.08.68a1.34,1.34,0,0,1,.48,1.11,2.08,2.08,0,0,0,.6,1.4A2.17,2.17,0,0,1,107,419Z" transform="translate(0 0.3)"/><path class="cls-9" d="M106.93,425.63c.08,0,.16.16.16.4a.44.44,0,0,1-.44.4c-.2,0-.28-.21-.16-.4S106.81,425.63,106.93,425.63Z" transform="translate(0 0.3)"/><path d="M105.41,388.53c3.24-.24,3.12.48-.12.84-2.68.28-5,1.6-5,2.8,0,.8.08.8.6-.2a2.92,2.92,0,0,1,1.68-1.28,12.78,12.78,0,0,1,2-.21l0,.79a2.87,2.87,0,0,0-2.34,1.06,8,8,0,0,0-1.32,2c-.31,1.16-.88,1.16-1.23,0l-.25-.84-.71.92c-.76,1-1.36.56-1-.68.2-.68.16-.64-.4,0a3.35,3.35,0,0,0-.64,1.88c0,1.6-.8,1.88-1.88.6A3.82,3.82,0,0,1,94,394.7l.82-.16a.9.9,0,0,0,.24.51c.24.12.4,0,.4-.32,0-.92,2.84-3.56,5.16-4.84A11.66,11.66,0,0,1,105.41,388.53Z" transform="translate(0 0.3)"/><path class="cls-9" d="M106.6,423l-.75.41a2.67,2.67,0,0,0-1.33-.57c-1.15,0-1.71-.68-1.07-1.32a.56.56,0,0,1,.15-.1c.34-.14,1,.16,2.09,1A8.93,8.93,0,0,0,106.6,423Z" transform="translate(0 0.3)"/><path class="cls-10" d="M106.37,426.83c.24,0,.24.25-.08.6s-.6.52-.68.45C105.32,427.59,105.89,426.83,106.37,426.83Z" transform="translate(0 0.3)"/><path d="M101.09,408.57c.92.24,3.32,5.15,3.12,6.43a.51.51,0,0,1,0,.13l-.7-.05c0-.88-2.52-5.48-3.2-5.83a1.09,1.09,0,0,1-.68-1.4c.08-.6,0-1-.4-1.16-1-.4-.12-1,1.32-1a2.59,2.59,0,0,1,.68.09l-.09.38a1.68,1.68,0,0,0-.55,0c-.85,0-.85,0-.08.36a4.18,4.18,0,0,0,1.05.35l-.09.59C100.19,407.22,99.81,408.21,101.09,408.57Z" transform="translate(0 0.3)"/><path class="cls-10" d="M103,420.44c.6,0,.6.07.08.39a2.19,2.19,0,0,1-.29.17c-.63.34-1,.29-.71-.17a.4.4,0,0,1,.1-.12A1.3,1.3,0,0,1,103,420.44Z" transform="translate(0 0.3)"/><path d="M102.21,382.86c.72,0,.6.36-.48,1.8-.64.85-.85,1.44-.64,1.8.52.85-.32,2-1.39,2-1.44,0-1.28-1,.51-3.52C101,383.81,101.93,382.86,102.21,382.86Zm-1.91,4.4c0-.24-.08-.4-.16-.4s-.32.16-.44.4,0,.4.16.4a.43.43,0,0,0,.43-.41Z" transform="translate(0 0.3)"/><path class="cls-10" d="M101.69,406.44q.24.4-.15.36a4.65,4.65,0,0,1-1.05-.36c-.76-.31-.76-.36.08-.36a2,2,0,0,1,.55,0A.83.83,0,0,1,101.69,406.44Z" transform="translate(0 0.3)"/><path class="cls-9" d="M100.13,386.85c.08,0,.16.16.16.4a.44.44,0,0,1-.44.4c-.2,0-.27-.2-.16-.4S100,386.85,100.13,386.85Z" transform="translate(0 0.3)"/><path d="M97.89,389.41a1,1,0,0,1-.4.85c-.2.12-.4-.12-.4-.56s.2-.85.4-.85S97.89,389.09,97.89,389.41Z" transform="translate(0 0.3)"/><path class="cls-10" d="M95.65,412.48c.44,0,.68.08.52.21a.8.8,0,0,1-.75,0C95.1,412.6,95.21,412.48,95.65,412.48Z" transform="translate(0 0.3)"/><g id="g"><path class="cls-12" d="M185.27,431.51c2.2-1,2.15-3.16,2.11-5.3-.21-4.22-2.15-15.86,5.1-19.46,1.92-2.69,3.4-4.77,4.17-4.83,1.2-1.88,1.18-3.33,3.6-5.12,1-1.88,1.72-5.23,3-5.44.76-1.95.73-4.11,2.74-5.34,1.62-4.69,2.66-5.26,3.82-6.76.57-3.44,1-4.17,1.59-4.69.33-2.95.28-6.46,2-8.1a17.12,17.12,0,0,1,.81-8.71c-.6-3.07-1.44-6.14-.17-9.21-.5-2.73-1.85-4.83-1.12-8.48-.91-3.14-4-6.19-2.58-9.43a9.91,9.91,0,0,1-2-7.41c-1.4-2.11-3.15-3.93-3-7.23-1.21-1.92-3-3.47-2.45-6.51-1.39-2.05-4.32-3.68-3.06-6.45-2.21-1.24-4.25-2.62-3.92-6-4.42-3.16-5.34-5.27-5.75-7.24-3.48-1.48-6.37-4.77-6.69-7.75-3.52-3.77-8.33-6.05-10.55-11.32,3.18.8,6.52,2.66,9.86,4.52-2.15-4,5.71-1.73,7.32,1.08,3,.46,6,1.05,8,4.6a11.93,11.93,0,0,1,7.22,5.43c3.13,1.94,3.66,2.76,5.25,6.2a11,11,0,0,1,4.72,5.45c2.74,1.8,4.77,4,5,7.23,3.35,1.7,4.24,4.12,4.68,6.78,2.59,1.17,3.32,4,3.82,7,3.16,2.52,3.07,5.38,3.1,8.23,3.59,2.18,3.61,6.25,3.36,10.46,2.52,1.7,4.14,4.43,3.23,10.12,1.94,2.69,2.18,5.72,1.08,9,3.09,5.12,1.79,8.43-.22,11.46,3,4.65,1.28,8.61-1.38,12.66,1.83,4.46.52,8-2.41,11.19.94,5.57-1.27,8.38-3.82,10.89.49,4.69-1.19,7.79-4.31,9.84a11.33,11.33,0,0,1-4.48,8.25c-.95,2.82-1.61,5.58-5.23,7.51a10.36,10.36,0,0,1-6.78,7.6c-2.14,6.08-10.11,7.54-23.16,3.75-2.2-.64-4.27-1.57-7.24-.35Z" transform="translate(0 0.3)"/><path class="cls-13" d="M173,270.8l.78.22a4.94,4.94,0,0,1,1.49.5,59.86,59.86,0,0,1,7,3.48c.19.07.39.15.53.19-1.87-3.77,5.49-1.65,7.28,1.05a1.49,1.49,0,0,0,.3.18l0,0c2.77.43,5.5,1,7.48,4l.71.67a11.77,11.77,0,0,1,6.84,5.31c3.12,1.94,3.66,2.76,5.25,6.2a10.75,10.75,0,0,1,4.61,5.25l.47.46c2.55,1.76,4.42,3.89,4.63,7,3.27,1.65,4.18,4,4.63,6.61l.38.35c2.32,1.25,3,4,3.5,6.85,3.15,2.51,3.07,5.36,3.1,8.2l.08.08c3.38,2.11,3.51,5.93,3.3,9.94l.1.55c2.45,1.7,4,4.45,3.1,10,1.94,2.68,2.18,5.73,1.08,9,3.1,5.12,1.8,8.42-.21,11.44,3,4.61,1.31,8.54-1.3,12.54l-.06.19c1.78,4.42.48,8-2.43,11.13.93,5.57-1.29,8.37-3.84,10.89.49,4.69-1.19,7.8-4.31,9.85a11.31,11.31,0,0,1-4.48,8.24c-1,2.82-1.61,5.57-5.21,7.5l-.21.73h0a10.17,10.17,0,0,1-6.56,6.89c-2.15,6.08-10.13,7.54-23.18,3.75-2.19-.64-4.26-1.58-7.22-.35l4.65-8.26c2.2-1,2.15-3.16,2.12-5.3-.22-4.21-2.14-15.78,5-19.42a.42.42,0,0,1,0-.1l.18-.16c1.74-2.44,3.11-4.33,3.89-4.57l.53-.73h0c.82-1.56,1.06-2.87,3.18-4.43,1-1.83,1.7-5.08,3-5.39l.11-.19c.7-1.91.74-4,2.69-5.17,1.44-4.15,2.42-5.07,3.44-6.27l.46-1c.54-3,1-3.74,1.52-4.23.33-2.92.28-6.41,2-8.06l0-.08a16.87,16.87,0,0,1,.82-8.65c-.61-3.07-1.46-6.14-.19-9.21-.5-2.74-1.84-4.83-1.11-8.49l-.12-.34-.54-1.35,0-.08c-1.21-2.53-3-5-1.89-7.66a9.87,9.87,0,0,1-2-7.36l0-.1c-1.34-2-3-3.8-3-6.88l-.25-.66c-1.14-1.68-2.56-3.19-2.24-5.82l-.59-1.11c-1.41-1.64-3.36-3.15-2.55-5.4l-.27-.18c-.23-.24-.43-.47-.64-.7-1.52-1-2.77-2.15-2.92-4.25a1.19,1.19,0,0,1-.11-.75s0,0,.07,0h0a.08.08,0,0,1,0,0l-.23-.11c-.32-.38-.66-.74-1-1.11-3.15-2.48-4-4.28-4.43-5.94-.34-.28-.69-.54-1.06-.81-2.87-1.54-5.15-4.27-5.64-6.84a7.1,7.1,0,0,0-1-1.35c-3-2.91-6.71-5.08-8.93-9-.07-.12-.14-.22-.19-.32a11.87,11.87,0,0,1-.54-1.14Zm2.34,1.92c-.15,0-.22.06-.25.14,2.36,3.4,6.07,5.51,8.91,8.51a39.49,39.49,0,0,0,5.45,2.61c5.1,2,1.85-.38,1.11-1.13a44.78,44.78,0,0,0-9-7.39c-1.33-.55-2.64-1.33-4-2a6.74,6.74,0,0,0-2.21-.71Zm10.2,2.15c-.88,0-1.56.21-2,.18a1.05,1.05,0,0,1,0,.5,77.52,77.52,0,0,1,13.71,14.07c-2.85-1.94-8.18-5.42-12.67-6.78l.06.13,1.72.57a6.78,6.78,0,0,0,2.34,4.5,11.85,11.85,0,0,0,1.95,1.06l.28.66a36.06,36.06,0,0,0,10.48,4.2l2.8,3.75c-3.86-4.11-8.52-4.88-12.85-7a.37.37,0,0,0,.05.11l2.46,1.11a4.77,4.77,0,0,0,1.44,3.49,2.85,2.85,0,0,1,1.11,1c3.06,2.51,8.14,4.27,11,5l1.86,2.92c-2.7-3.16-7.88-4.32-12.35-6.58a2.17,2.17,0,0,0,0,.25c.14.11.24.17.25.08,2.17,5.76,10.84,8.44,15.59,10.09l1.3,3.36c-2.3-4.33-8.13-4.57-13.47-7.84-.55,2.21,2.28,3.5,3.1,5.37a44,44,0,0,0,12.73,5.65l.73,2.28c-3.79-3-7.67-4.1-13.41-6.85-.18,2.2,1.71,3.89,2.57,5.77v0a51.59,51.59,0,0,0,15.14,9.57l1,3.09c-1.86-3.61-10.94-7.3-16.16-11.46.3,2.22,2,4,3,5.95a121,121,0,0,0,15.45,11.67l1.43,3.49c-2.59-5.1-11.21-8.27-16.93-14.09a12,12,0,0,0,2,6.28.13.13,0,0,1,0,.06,62.16,62.16,0,0,0,15.78,11.5l.21,3c-1.2-4.22-11-7.84-16.15-13.75-.45,2.85,1.67,5.34,2.63,8,5,4.67,9.93,9.77,14.6,13.39l0,2.37c-2.5-5-9.5-9.5-14.52-14.19-.2,2.35.54,4.66,1.14,6.94a111.13,111.13,0,0,0,13.47,14.31l-.43,4c.06-5.82-8.23-10.33-13.18-16.7a15.47,15.47,0,0,0,.21,7.06,88.27,88.27,0,0,0,12.09,15.64l-.75,3.71c1-4.48-7-10.83-11.37-17.09-.46,2.51-1.15,5.1-.51,7.67a2.5,2.5,0,0,0-.21.35,35.24,35.24,0,0,0,10.64,13.94L223,385.38c.69-7.16-6.26-10.49-9.44-17.63a17.61,17.61,0,0,0-1.17,6.34l0,.06c1.94,6.65,5.71,11,9.09,15.4l-1.85,4c1.36-7.27-3.73-8.44-7.85-17.88a12.1,12.1,0,0,0-1,3.76l-.37.48c.5,6.71,5,11.55,7.91,16.18l-1.76,3.14c1.24-6.53-5.65-10.51-7-18.15a17.48,17.48,0,0,0-2.59,5.09c.73,6,4.49,12.1,7.52,16.33l-2,2.72c.49-6.29-6.12-12.84-6.38-18.2a9.69,9.69,0,0,0-1.81,4.25l-.21.19c-.35,6.13,3.42,12.4,5.81,17.81l-2,2.25c1.41-6.42-4.2-12.06-4.86-18.66a23,23,0,0,0-1.56,3.51,9.41,9.41,0,0,1-.73,1c-.64,5,2.28,12.1,4.77,16.84l-1.86,1.93c.17-6.89-3.45-10.83-3.91-17.59a7.88,7.88,0,0,0-1.85,3.07c-.19.22-.39.43-.58.63-1.06,4.72.5,11.06,2.82,17.64l-2.59,2c2.54-6.86-1.8-9.79-1.24-18.54a26.67,26.67,0,0,0-3.05,3.89l-.14.08c-1.52,5.19,0,13.16,1.55,17.54l-2.67,2.27c2.36-2.49-1-14.11.13-19.19-3.11,2.25-4.15,6.4-4.19,10.11-.53,4.25,1.56,8.89-.51,12.84-2.41,1.9-3.36,5-5,7.54.21,0,.44,0,.66,0l-.25-.26,6.18-3.53c8.76,1.55,16.21,2.53,21.38,1.56,1.15-1.21,3.14-1.53,4.23-3a7.43,7.43,0,0,0,2-3.37c-8.51,2.39-18.67-1.42-26.78,4.31l6.28-4.33c8.65.26,14,.63,21.1-1.15a3.67,3.67,0,0,1,.85-.95c2.1-1.06,2.92-3.18,3.78-5.21-6.9,2.29-18,.78-22,4.2l3-2.79c7.54,0,14.32-.37,19.65-2.79.12-.23.23-.47.36-.69,2.12-1.5,3.12-3.86,3.81-6.23-6.38,1.93-15.45,2.58-18.7,4.89l2.29-2.68c10.52-.56,12.56-2.11,16.71-3.41.06-.23.12-.45.17-.68,2.92-1.62,4.09-5,4.09-8.14-5.84,2.36-15,5.18-17,7l1.32-2.17c14.59-4.36,12.14-4.46,15.61-6v0c2.14-2.41,4.32-5.21,3.95-8.68a3,3,0,0,1-.17-.67c-5.2,3-14.06,6.21-15,8.1l.52-2.31A76.69,76.69,0,0,0,235,392.21c.42-1.19,1.48-2.19,2.08-3.4,1.34-2.16.94-4.64.48-7-4.42,2.87-9.29,5.08-13,9l1-2.74c3.29-1.15,8.42-4.5,12.29-8.23,1.86-2.87,3.24-6.55,1.55-9.75a2.89,2.89,0,0,1-.33-.45c-3.71,3.93-8.4,7.16-11.32,10.4l.36-2.32a42.2,42.2,0,0,0,10.64-9.06c0-1.08.9-2.15,1.34-3.23,1.21-2.49.26-5-.7-7.35-3.37,5.21-9.51,8.92-10,13.61l.42-4.81c5-3.24,6.79-6.58,9.14-9.9a2.52,2.52,0,0,1-.12-.29,9.1,9.1,0,0,0-.51-7.66c-2.3,4.12-6.56,8.15-8.26,13.28l-.73-2.07a75.64,75.64,0,0,0,8.5-12.25c.27-3.16.35-7.13-2.49-9.18-2.44,6-6.26,11.44-5.29,18.94l-1.64-6.22c2.06-4.7,5.13-8.76,6.26-14-.34-2.9.34-6.4-2.09-8.63a3.35,3.35,0,0,1-.45-.27c-4.29,11.45-3.55,14.91-3.05,18.76L227.16,341a66.12,66.12,0,0,0,4.2-13.52,22.21,22.21,0,0,1-.4-3.42c0-1.49-.93-2.47-1.78-3.48-.42,5.2-3.4,9.56-1.84,18.61l-2.13-5.25c1.77-5.09,3-10.3,3-14.67a3.3,3.3,0,0,1-.46-1.62,7.15,7.15,0,0,0-2.14-4.22c.06,5.79-2.83,12.08-1,16.62l-2.13-4.32a27.79,27.79,0,0,0,2-13.23c-.11-.09-.22-.18-.34-.26a8,8,0,0,0-3.33-5.74,71.37,71.37,0,0,1-.5,14.05l-1.27-2.14a35.16,35.16,0,0,0,1-12.43l-.38-.23a9.69,9.69,0,0,0-3.63-6.14,98.6,98.6,0,0,1-.38,11.68l-1.09-1.52c1.06-5.58.75-8.75.12-11.36h0c-1.07-1.37-1.85-3.07-3.19-4.2A69.36,69.36,0,0,1,211.4,305l-.8-.19c.25-3.73.6-7.45-.21-11.41l-.11-.06c-1.13-2.1-2.29-4.31-4.3-5.65.75,3.94.44,7.13.36,10.48l-1-.55a16.16,16.16,0,0,0-2.36-13,12.61,12.61,0,0,0-3.93-2.55,66.29,66.29,0,0,1,2.27,11.07l-1.52-1.78c0-11.32-5.55-12.91-7.59-13.48,1.74,3.33,3.27,6.67,4.75,10.25l-.64.09c-2.27-5.84-4.33-9.17-6.13-11h-.17a13.4,13.4,0,0,0-1.88-1.64,5.09,5.09,0,0,0-2.64-.7Zm28.62,136.31-.39.64A1,1,0,0,1,214.15,411.18Zm-6.29,7.89-1.09,1.27A2.92,2.92,0,0,1,207.86,419.07Zm14.56-90.37a3,3,0,0,1,.31,1Zm-2.61,73.07-.08.31A.65.65,0,0,1,219.81,401.77Zm-27.51,34.1c-2.19,0-4.5.62-7.55,2.6,3.4.44,6.6,2.12,10,2.4,5,.74,11.54,1.32,14.77-3.36a3,3,0,0,1,.17-.5C200.76,438.39,196.76,435.86,192.3,435.87Z" transform="translate(0 0.3)"/><path class="cls-14" d="M170.29,444.16,166.15,440c32.86-7.17,103.63-72.75,30.49-151.39C248.9,337.2,238.22,417.91,170.29,444.16Z" transform="translate(0 0.3)"/></g><g id="g-2"><path class="cls-12" d="M82.73,431.51c-2.2-1-2.15-3.16-2.11-5.3.22-4.22,2.15-15.86-5.1-19.46-1.92-2.69-3.4-4.77-4.17-4.83-1.2-1.88-1.18-3.33-3.6-5.12-1-1.88-1.72-5.23-3-5.44C64,389.41,64,387.25,62,386c-1.62-4.69-2.66-5.26-3.82-6.76-.57-3.44-1-4.17-1.59-4.69-.33-2.95-.28-6.46-2-8.1a17.12,17.12,0,0,0-.81-8.71c.6-3.07,1.44-6.14.17-9.21.5-2.73,1.85-4.83,1.12-8.48.91-3.14,4-6.19,2.58-9.43a9.91,9.91,0,0,0,2-7.41c1.4-2.11,3.15-3.93,3-7.23,1.21-1.92,3-3.47,2.45-6.51,1.39-2.05,4.32-3.68,3.06-6.45,2.21-1.24,4.25-2.62,3.92-6,4.42-3.16,5.34-5.27,5.75-7.24,3.48-1.48,6.37-4.77,6.69-7.75,3.52-3.77,8.33-6.05,10.55-11.32-3.18.8-6.52,2.66-9.86,4.52,2.15-4-5.71-1.73-7.32,1.08-3,.46-6,1.05-8,4.6a11.93,11.93,0,0,0-7.22,5.43c-3.14,2-3.66,2.78-5.26,6.22a11,11,0,0,0-4.71,5.45c-2.74,1.8-4.77,4-5,7.23-3.34,1.7-4.23,4.12-4.67,6.78-2.6,1.17-3.33,4-3.82,7-3.16,2.52-3.07,5.38-3.11,8.23-3.58,2.18-3.61,6.25-3.35,10.46-2.52,1.7-4.14,4.43-3.23,10.12-1.94,2.69-2.18,5.73-1.08,9-3.1,5.12-1.79,8.44.21,11.46-3,4.65-1.27,8.61,1.38,12.66-1.83,4.46-.51,8,2.41,11.19-.93,5.57,1.28,8.38,3.83,10.9-.5,4.68,1.18,7.78,4.3,9.83A11.37,11.37,0,0,0,45,421.24c.95,2.82,1.62,5.58,5.23,7.52a10.39,10.39,0,0,0,6.78,7.6c2.15,6.07,10.12,7.54,23.17,3.74,2.19-.64,4.27-1.57,7.23-.34Z" transform="translate(0 0.3)"/><path class="cls-13" d="M95,270.8l-.78.22a4.94,4.94,0,0,0-1.49.5,59.86,59.86,0,0,0-7,3.48c-.19.07-.39.15-.53.19,1.87-3.77-5.49-1.65-7.28,1.05a1.49,1.49,0,0,1-.3.18l0,0c-2.77.43-5.5,1-7.48,4l-.7.67a11.77,11.77,0,0,0-6.84,5.31c-3.12,1.94-3.66,2.76-5.25,6.2a10.75,10.75,0,0,0-4.61,5.25l-.47.46c-2.55,1.76-4.41,3.89-4.63,7-3.27,1.65-4.19,4-4.64,6.61l-.38.35c-2.32,1.25-3,4-3.5,6.85-3.15,2.51-3.07,5.36-3.1,8.2l-.08.08c-3.38,2.11-3.51,5.93-3.3,9.94l-.1.56c-2.45,1.7-4,4.44-3.1,10-1.94,2.68-2.18,5.73-1.08,9-3.1,5.12-1.8,8.43.21,11.45-3,4.6-1.31,8.53,1.3,12.53l.06.2c-1.78,4.42-.48,8,2.43,11.13-.93,5.56,1.29,8.37,3.84,10.89-.49,4.68,1.19,7.79,4.31,9.84A11.33,11.33,0,0,0,45,421.26c1,2.81,1.61,5.56,5.21,7.5l.21.72h0A10.17,10.17,0,0,0,57,436.37c2.15,6.08,10.13,7.55,23.18,3.75,2.19-.64,4.26-1.58,7.22-.35l-4.65-8.26c-2.2-1-2.15-3.16-2.11-5.3.22-4.21,2.14-15.78-5-19.42a.42.42,0,0,0,0-.1l-.18-.16c-1.74-2.44-3.11-4.33-3.89-4.57l-.53-.73h0c-.82-1.56-1.06-2.87-3.18-4.43-1-1.83-1.7-5.08-3-5.39l-.11-.19c-.7-1.91-.74-4-2.69-5.17-1.44-4.15-2.42-5.07-3.44-6.27l-.46-1c-.54-3-1-3.74-1.52-4.23-.32-2.93-.28-6.41-2-8.07l0-.08a16.87,16.87,0,0,0-.82-8.65c.61-3.08,1.46-6.15.18-9.22.5-2.73,1.85-4.83,1.12-8.48a3.4,3.4,0,0,1,.12-.34l.54-1.35,0-.08c1.2-2.53,3-5,1.88-7.67a9.85,9.85,0,0,0,2-7.35l0-.11c1.34-2,3-3.79,3-6.88l.25-.66c1.14-1.68,2.56-3.18,2.24-5.81l.59-1.12c1.41-1.64,3.36-3.14,2.54-5.39l.28-.18c.23-.24.42-.48.64-.71A5.28,5.28,0,0,0,72,298.19a1.17,1.17,0,0,0,.12-.76s0,0-.08,0h0l0,0,.24-.12c.31-.37.66-.73,1-1.1,3.14-2.48,4-4.28,4.42-6l1-.8c2.87-1.54,5.16-4.27,5.65-6.84a6.42,6.42,0,0,1,1-1.35c3-2.91,6.71-5.08,8.92-9,.08-.12.14-.22.2-.33A12,12,0,0,0,95,270.8Zm-2.34,1.92c.15,0,.22.06.25.14-2.36,3.4-6.07,5.51-8.91,8.51A39.49,39.49,0,0,1,78.56,284c-5.1,2-1.85-.38-1.11-1.13a44.78,44.78,0,0,1,9-7.39c1.33-.55,2.64-1.33,4-2a6.74,6.74,0,0,1,2.21-.71Zm-10.2,2.15c.88,0,1.56.21,2,.18a1.05,1.05,0,0,0,0,.5,77.52,77.52,0,0,0-13.71,14.07c2.85-1.94,8.18-5.42,12.67-6.78l-.06.13-1.72.57a6.78,6.78,0,0,1-2.34,4.5,11.85,11.85,0,0,1-1.95,1.06l-.28.66A36.06,36.06,0,0,1,66.67,294l-2.8,3.75c3.86-4.11,8.52-4.88,12.85-7a.37.37,0,0,1,0,.11l-2.46,1.11a4.77,4.77,0,0,1-1.44,3.49,2.85,2.85,0,0,0-1.11,1c-3.06,2.51-8.14,4.27-11,5l-1.86,2.92c2.7-3.16,7.88-4.32,12.35-6.58a2.17,2.17,0,0,1,0,.25c-.14.11-.24.17-.25.08-2.17,5.76-10.83,8.44-15.59,10.09L54,311.62c2.3-4.33,8.13-4.57,13.47-7.84.55,2.21-2.28,3.5-3.1,5.37a44,44,0,0,1-12.73,5.65l-.73,2.28c3.79-3,7.67-4.1,13.41-6.85.18,2.2-1.71,3.89-2.57,5.77v0a51.59,51.59,0,0,1-15.14,9.57l-1,3.1c1.86-3.61,10.94-7.3,16.16-11.46-.3,2.22-2,4-3,5.95a122,122,0,0,1-15.45,11.67l-1.43,3.49c2.59-5.1,11.21-8.27,16.93-14.1a12,12,0,0,1-2,6.29.13.13,0,0,0,0,.06,62.41,62.41,0,0,1-15.78,11.5l-.21,3c1.2-4.22,11-7.84,16.15-13.75.45,2.85-1.67,5.34-2.63,8-5,4.67-9.93,9.77-14.6,13.39l.05,2.37c2.5-5,9.5-9.5,14.52-14.19.2,2.35-.54,4.66-1.14,6.94a111.79,111.79,0,0,1-13.47,14.31l.43,4c-.06-5.82,8.23-10.34,13.18-16.7a15.47,15.47,0,0,1-.21,7.06,87.83,87.83,0,0,1-12.09,15.63l.75,3.71c-1-4.48,7-10.83,11.37-17.09.46,2.51,1.15,5.1.51,7.67a2.5,2.5,0,0,1,.21.35,35.24,35.24,0,0,1-10.64,13.94L45,385.38c-.69-7.16,6.26-10.49,9.44-17.63a17.61,17.61,0,0,1,1.17,6.34l0,.06c-1.94,6.65-5.71,11-9.09,15.4l1.85,4c-1.36-7.27,3.73-8.44,7.85-17.88a12.1,12.1,0,0,1,1,3.76l.37.48c-.5,6.71-5,11.55-7.91,16.18l1.76,3.14c-1.24-6.53,5.65-10.51,7-18.15a17.48,17.48,0,0,1,2.59,5.09c-.73,6-4.49,12.1-7.52,16.33l2,2.72c-.49-6.29,6.12-12.84,6.38-18.2a9.69,9.69,0,0,1,1.81,4.25l.21.19c.35,6.12-3.43,12.38-5.81,17.8l2,2.24c-1.41-6.42,4.2-12.06,4.86-18.66a23.11,23.11,0,0,1,1.56,3.52,10.36,10.36,0,0,0,.73,1c.64,5-2.28,12.11-4.77,16.84l1.86,1.94c-.17-6.9,3.45-10.84,3.91-17.6a7.92,7.92,0,0,1,1.85,3.08l.58.62c1.06,4.73-.5,11.07-2.82,17.65l2.59,2c-2.54-6.86,1.8-9.78,1.24-18.54a26.67,26.67,0,0,1,3,3.89l.14.08c1.52,5.19,0,13.17-1.55,17.54l2.67,2.27c-2.36-2.49,1-14.11-.13-19.19,3.11,2.25,4.15,6.4,4.19,10.11.53,4.25-1.56,8.9.51,12.85,2.41,1.89,3.36,5,5,7.54-.21,0-.44,0-.66,0l.25-.26-6.18-3.53c-8.76,1.55-16.21,2.54-21.38,1.56-1.15-1.2-3.14-1.53-4.23-3a7.38,7.38,0,0,1-2-3.37c8.51,2.4,18.67-1.42,26.78,4.31L72,429.79c-8.65.25-14,.62-21.1-1.16a3.65,3.65,0,0,0-.85-.95c-2.1-1.06-2.92-3.18-3.78-5.21,6.9,2.29,18,.78,22,4.2l-3-2.79c-7.53,0-14.3-.37-19.64-2.78-.12-.24-.24-.47-.37-.69-2.11-1.5-3.12-3.86-3.8-6.23,6.37,1.92,15.45,2.58,18.69,4.89l-2.3-2.69c-10.52-.56-12.56-2.11-16.71-3.41-.06-.23-.12-.45-.17-.68-2.92-1.62-4.09-5-4.09-8.14,5.84,2.36,15,5.18,17,7L52.53,409c-14.59-4.36-12.14-4.46-15.61-6v0c-2.14-2.41-4.32-5.21-4-8.68a3,3,0,0,0,.17-.67c5.2,3,14.06,6.21,15,8.1l-.52-2.31A76.69,76.69,0,0,1,33,392.21c-.42-1.19-1.48-2.19-2.08-3.4-1.34-2.16-.94-4.64-.48-7,4.42,2.87,9.29,5.08,13,9l-1-2.74c-3.29-1.15-8.42-4.5-12.29-8.23-1.86-2.87-3.24-6.55-1.55-9.75a2.89,2.89,0,0,0,.33-.45c3.71,3.93,8.4,7.16,11.32,10.4l-.36-2.32a42,42,0,0,1-10.64-9.06c0-1.08-.9-2.15-1.34-3.23-1.21-2.49-.26-5,.7-7.35,3.37,5.21,9.51,8.92,10,13.61l-.42-4.81c-5-3.24-6.79-6.58-9.14-9.9a2.52,2.52,0,0,0,.12-.29,9.1,9.1,0,0,1,.51-7.66c2.3,4.12,6.56,8.15,8.26,13.28l.73-2.07A75.64,75.64,0,0,1,30.15,348c-.27-3.16-.35-7.13,2.49-9.18,2.44,6,6.26,11.44,5.29,18.94l1.64-6.22c-2.06-4.7-5.13-8.76-6.26-14,.34-2.9-.34-6.4,2.09-8.63a3.35,3.35,0,0,0,.45-.27c4.29,11.45,3.55,14.91,3,18.76L40.84,341a66.12,66.12,0,0,1-4.2-13.52,22.21,22.21,0,0,0,.4-3.42c0-1.49.93-2.47,1.78-3.48.42,5.2,3.4,9.56,1.84,18.61l2.13-5.25c-1.77-5.09-3-10.3-3-14.67a3.3,3.3,0,0,0,.46-1.62,7.15,7.15,0,0,1,2.14-4.22c-.06,5.79,2.83,12.08,1,16.62l2.13-4.32a27.79,27.79,0,0,1-2-13.23,3,3,0,0,1,.34-.26,8,8,0,0,1,3.33-5.74,71.37,71.37,0,0,0,.5,14.05l1.28-2.14a35.39,35.39,0,0,1-1-12.43l.38-.23a9.74,9.74,0,0,1,3.63-6.14,96.52,96.52,0,0,0,.38,11.68l1.08-1.52c-1.06-5.58-.74-8.75-.11-11.36h0c1.06-1.37,1.85-3.07,3.19-4.2A68.15,68.15,0,0,0,56.61,305l.79-.19c-.24-3.73-.59-7.45.21-11.41l.12-.06c1.13-2.1,2.29-4.31,4.3-5.65-.76,3.94-.45,7.13-.37,10.48l1-.55A16.14,16.14,0,0,1,65,284.69a12.44,12.44,0,0,1,3.93-2.55,64.34,64.34,0,0,0-2.27,11.07l1.52-1.78c-.05-11.33,5.55-12.91,7.59-13.48C74,281.27,72.5,284.62,71,288.2l.64.09c2.26-5.85,4.33-9.17,6.12-11.06H78a14.55,14.55,0,0,1,1.88-1.63,5.1,5.1,0,0,1,2.64-.71ZM53.85,411.18l.39.64A1,1,0,0,0,53.85,411.18Zm6.29,7.89,1.09,1.27A2.92,2.92,0,0,0,60.14,419.07ZM45.58,328.7a3,3,0,0,0-.31,1Zm2.61,73.07.08.31A.65.65,0,0,0,48.19,401.77Zm27.51,34.1c2.19,0,4.5.62,7.55,2.6-3.4.44-6.6,2.12-10,2.4-5,.74-11.54,1.32-14.77-3.36a3,3,0,0,0-.17-.5C67.24,438.39,71.24,435.86,75.7,435.87Z" transform="translate(0 0.3)"/><path class="cls-15" d="M97.71,444.16l4.14-4.14C69,432.85-1.78,367.27,71.36,288.63,19.1,337.2,29.78,417.91,97.71,444.16Z" transform="translate(0 0.3)"/></g><rect class="cls-16" x="57.18" y="271.57" width="150.99" height="67.21"/><path d="M207.64,271.81V338H57.71V271.81H207.64m1.06-1.06h-152V339h152Z" transform="translate(0 0.3)"/><path d="M58.81,325.19H70.74a.74.74,0,0,1,.79.52q2.41,5.87,4.86,11.71c.09.22.15.37.43.37,3.79,0,7.58,0,11.38,0l.13,0-.54-1.33L83.45,326c-.27-.63-.18-.77.53-.77H95.91a.74.74,0,0,1,.79.52c1.59,3.86,3.2,7.7,4.78,11.56a.71.71,0,0,0,.81.52c3.57,0,7.13,0,10.7,0h.52c-.07-.18-.12-.32-.18-.46l-4.74-11.4c-.23-.57-.14-.72.48-.72h12.06a.68.68,0,0,1,.72.49c1.61,3.91,3.24,7.81,4.86,11.71a.54.54,0,0,0,.58.4c3.65,0,7.3,0,11,0h.42l-.16-.43q-2.37-5.69-4.72-11.37c-.28-.66-.19-.8.54-.8h11.93a.7.7,0,0,1,.76.5c1.6,3.87,3.22,7.73,4.81,11.6a.69.69,0,0,0,.77.5c3.58,0,7.16,0,10.74,0h.52c-.31-.74-.6-1.45-.9-2.15L159,326c-.28-.67-.19-.8.53-.8h11.9a.77.77,0,0,1,.83.58c1.61,3.89,3.24,7.78,4.85,11.67a.46.46,0,0,0,.49.35h11.16l.3,0-1.19-2.85L184.11,326c-.26-.62-.16-.76.51-.76h12a.66.66,0,0,1,.72.49c1.61,3.9,3.24,7.78,4.85,11.69a.58.58,0,0,0,.65.42c1.51,0,3,0,4.58,0v.69h-5.18c-.36,0-.44-.24-.54-.49l-4.25-10.21c-.21-.54-.42-1.08-.68-1.61a.5.5,0,0,0-.36-.25H185.09l-.19,0c.06.17.12.32.18.47l4.71,11.31c.26.63.17.75-.51.75h-12a.65.65,0,0,1-.71-.49c-1.61-3.89-3.24-7.78-4.85-11.68a.57.57,0,0,0-.61-.43c-3.64,0-7.27,0-10.91,0h-.48c.07.18.11.32.16.45,1.58,3.77,3.15,7.55,4.72,11.31a1.74,1.74,0,0,1,.13.36c0,.25,0,.43-.33.43H152.07a.67.67,0,0,1-.72-.49q-2.41-5.84-4.85-11.68a.54.54,0,0,0-.61-.42H134.51l1.09,2.6,3.82,9.19c.27.64.18.77-.52.77H127a.75.75,0,0,1-.81-.55c-1.61-3.9-3.24-7.79-4.85-11.68a.46.46,0,0,0-.49-.35H109.66l-.3,0,.76,1.82q2.07,5,4.15,10c.25.6.16.73-.49.73H101.72A.64.64,0,0,1,101,338c-1.61-3.89-3.24-7.78-4.85-11.68a.59.59,0,0,0-.64-.45c-3.61,0-7.22,0-10.83,0h-.52l.43,1.07,4.47,10.76c.25.59.16.73-.49.73H76.54a.64.64,0,0,1-.69-.46q-2.43-5.88-4.88-11.76c-.1-.22-.19-.36-.48-.36H59.33l-.3,0c.06.15.1.29.15.41q2.37,5.75,4.73,11.4a1.67,1.67,0,0,0,.08.2c.17.44.06.62-.41.62H58c0-.23,0-.46,0-.69h5.24c-.18-.42-.33-.8-.49-1.17L58.27,326C58,325.33,58.1,325.19,58.81,325.19Z" transform="translate(0 0.3)"/><path class="cls-2" d="M59.33,325.9H70.5c.29,0,.38.14.48.37L75.86,338a.64.64,0,0,0,.69.46v.92H58c0-.31,0-.61,0-.92h5.61c.46,0,.57-.18.4-.62a1.67,1.67,0,0,0-.08-.2l-4.71-11.31c0-.13-.09-.26-.15-.41A1.23,1.23,0,0,1,59.33,325.9Z" transform="translate(0 0.3)"/><path class="cls-2" d="M84.72,325.9H95.55a.59.59,0,0,1,.64.45c1.61,3.89,3.24,7.78,4.85,11.68a.64.64,0,0,0,.67.45v.91H76.55v-.91q6,0,12.06,0c.64,0,.74-.14.49-.73L84.63,327c-.15-.34-.28-.68-.43-1.07Z" transform="translate(0 0.3)"/><path class="cls-2" d="M109.66,325.9h11.16a.47.47,0,0,1,.49.36c1.61,3.89,3.24,7.78,4.85,11.67a.74.74,0,0,0,.81.56v.91H101.71v-.93c4,0,8.05,0,12.06,0,.65,0,.74-.14.49-.74q-2.07-5-4.15-10l-.76-1.82Z" transform="translate(0 0.3)"/><path class="cls-2" d="M135,325.9h10.91a.56.56,0,0,1,.61.43q2.43,5.83,4.85,11.68a.67.67,0,0,0,.72.49v.91H127v-.93c4,0,7.95,0,11.93,0,.7,0,.79-.12.52-.77l-3.82-9.19-1.09-2.6Z" transform="translate(0 0.3)"/><path class="cls-2" d="M160.15,325.9h10.91a.57.57,0,0,1,.61.43c1.61,3.89,3.24,7.78,4.85,11.68a.65.65,0,0,0,.71.49v.91H152.07v-.93c4,0,8,0,12.06,0h.25c.29,0,.38-.18.33-.42a1.4,1.4,0,0,0-.13-.36q-2.36-5.67-4.72-11.33c-.05-.13-.09-.27-.16-.45Z" transform="translate(0 0.3)"/><path class="cls-2" d="M185.06,325.91h11.33a.46.46,0,0,1,.36.25c.25.53.46,1.06.68,1.6L201.68,338c.1.25.18.49.54.49,1.73,0,3.45,0,5.18,0v.92H177.23v-.92c4,0,8,0,12,0,.68,0,.77-.13.51-.75l-4.71-11.32c-.06-.14-.12-.29-.18-.46A1.08,1.08,0,0,1,185.06,325.91Z" transform="translate(0 0.3)"/><path d="M207.42,337.77h.22v.66l-.17,0h-.06C207.41,338.23,207.41,338,207.42,337.77Z" transform="translate(0 0.3)"/><path d="M57.46,337.79H58c0,.22,0,.45,0,.68h-.51Z" transform="translate(0 0.3)"/><g id="Icosahedron"><g class="cls-17"><g id="Icosahedron:_Art" data-name="Icosahedron: Art"><g id="Group_113" data-name="Group 113"><g id="Group_114" data-name="Group 114"><g id="Graphic_121" data-name="Graphic 121"><path class="cls-2" d="M153.32,310.63l-21,12.11-21-12.11V286.42l21-12.11,21,12.11Z" transform="translate(0 0.3)"/><path d="M132.35,322.8h0l-21-12.11a.05.05,0,0,1,0-.05V286.43a.05.05,0,0,1,0-.05l21-12.11h.05l21,12.11a.05.05,0,0,1,0,.05v24.21a.05.05,0,0,1,0,.05l-21,12.11Zm-20.92-12.2,20.92,12.08,20.91-12.08V286.45l-20.91-12.08-20.92,12.08Zm41.89,0Z" transform="translate(0 0.3)"/></g><g id="Graphic_120" data-name="Graphic 120"><path d="M132.35,313.46a.05.05,0,0,1,0,0l-14.25-24.66a.06.06,0,0,1,0-.06.05.05,0,0,1,0,0h28.49a.05.05,0,0,1,0,0,.06.06,0,0,1,0,.06L132.4,313.44A0,0,0,0,1,132.35,313.46ZM118.2,288.79l14.15,24.5,14.14-24.5Z" transform="translate(0 0.3)"/></g><g id="Graphic_119" data-name="Graphic 119"><path d="M132.35,313.46h0l-21-2.77v-.11l21,2.77,21-2.77v.11l-21,2.77Z" transform="translate(0 0.3)"/></g><g id="Graphic_118" data-name="Graphic 118"><rect x="132.29" y="313.7" width="0.11" height="9.33"/></g><g id="Graphic_117" data-name="Graphic 117"><path d="M146.59,288.79s0,0,0,0l-14.2-14.38-14.21,14.38a.06.06,0,0,1-.06,0l-6.72-2.32,0-.1,6.7,2.31,14.21-14.4a.06.06,0,0,1,.08,0l14.22,14.4,6.7-2.31,0,.11-6.73,2.32Z" transform="translate(0 0.3)"/></g><g id="Graphic_116" data-name="Graphic 116"><rect x="103.28" y="299.63" width="22.91" height="0.11" transform="translate(-205.43 321.58) rotate(-72.91)"/></g><g id="Graphic_115" data-name="Graphic 115"><rect x="149.9" y="288.23" width="0.11" height="22.91" transform="translate(-81.41 57.56) rotate(-17.08)"/></g></g></g></g></g></g><g id="Tower_" data-name="Tower "><g class="cls-18"><g id="Tower_18_:_Art" data-name="Tower  18 : Art"><g id="Group_111" data-name="Group 111"><g id="Graphic_113" data-name="Graphic 113"><path class="cls-11" d="M139,284.77a.83.83,0,0,0-.41.05l-.06.19a3.47,3.47,0,0,0,0,1.66c-.56,0-1.19,0-1.64,0h-.12l0-.85a8.39,8.39,0,0,0,0-.91.14.14,0,0,0-.13-.06c-.19,0-.39,0-.54,0h-.32a3.57,3.57,0,0,1-1,0h-.16c-.33,0-.31.09-.27,1.12,0,.32,0,.7,0,.83h0v.17c-.33,0-.72,0-1,0-.48,0-.5,0-.48-.68a3.54,3.54,0,0,0-.13-1.42h0s-.6,0-1.23.06q-.6,0-1.2.06a13.92,13.92,0,0,0-.16,1.88v0a6.54,6.54,0,0,1-1.17,0,.92.92,0,0,1-.29,0,6.16,6.16,0,0,1-.11-1.31,2,2,0,0,0,0-.6h-2.24v.32c0,.17,0,.51,0,.75s0,.51,0,.78h-.34l-.62,0a.69.69,0,0,1-.35,0h0c0-.08-.1-1.16-.14-1.58a.8.8,0,0,0,0-.26,10.08,10.08,0,0,0-1.91,0,.73.73,0,0,0,.08.25,2,2,0,0,1,.08.73,3.64,3.64,0,0,1,0,.57.91.91,0,0,0,0,.33,5.81,5.81,0,0,1,.07.83v.55l.31,0,.3,0v.33l0,.32.17,0c.16,0,.17,0,.18.18a.29.29,0,0,0,.16.27c.14.07.15.09.13.37s0,.45-.08.65a2.38,2.38,0,0,0,0,.46c0,.15,0,1.28,0,1.64,0,.16,0,.42-.06.58-.1,1-.16,4.89-.12,7.93,0,0,0,.71,0,1.49,0,1.29,0,1.95-.09,3.18a6.91,6.91,0,0,0,0,.79.86.86,0,0,1,0,.39,1.4,1.4,0,0,0,0,.41c0,.19,0,.72,0,1.17v.82l-.36,0a.77.77,0,0,0-.47.12.7.7,0,0,1-.28.12c-.21,0-.21,0-.29.32a5.28,5.28,0,0,1-.34.89,3,3,0,0,0-.15.48.67.67,0,0,1-.1.28.5.5,0,0,0-.1.19c0,.07-.14.34-.27.6s-.22.48-.22.5a.62.62,0,0,1-.11.17c-.13.18-.11.38,0,.41s.54.17.57.28.08.13.4.18a1.83,1.83,0,0,0,.47,0c.13,0,.21.06.13.15a.37.37,0,0,0-.06.21v.16l.6,0a3.18,3.18,0,0,0,.62-.06,1.86,1.86,0,0,1,.8.05.25.25,0,0,0,.17,0,38.67,38.67,0,0,1,5.07,0,.45.45,0,0,0,.28,0,1,1,0,0,1,.33-.08c.2,0,.29-.06.35-.16a3.31,3.31,0,0,1,.25-.3l.16-.18h1.17c1.32,0,1.35,0,1.56.33a.39.39,0,0,0,.29.22.37.37,0,0,0,.21,0,11.11,11.11,0,0,1,1.15-.08s.81,0,1.74,0,1.74,0,1.8.06a.37.37,0,0,0,.21,0,8.81,8.81,0,0,1,1.49-.07h1.37l.18-.14a1,1,0,0,1,.24-.14,2.69,2.69,0,0,0,.61-.31.46.46,0,0,1,.19-.08c.09,0,.17-.06.18-.09s-.1-.15-.24-.26-.26-.21-.26-.25a1.58,1.58,0,0,0-.24-.39c-.31-.41-.37-.52-.37-.67a.78.78,0,0,0-.07-.25,4.69,4.69,0,0,1-.34-1,4.56,4.56,0,0,0-.13-.53,2.12,2.12,0,0,1-.06-.71c0-.36,0-.42-.06-.4l-1.14.36c-.12.05-.14-.05-.17-.74,0-.32,0-.69,0-.81,0-.36,0-.43,0-.47s0-.12,0-.33a.73.73,0,0,1,0-.36,3,3,0,0,0-.1-.94,1.23,1.23,0,0,1,0-.71.47.47,0,0,0,0-.33,1.29,1.29,0,0,1,0-.48,2.81,2.81,0,0,0-.07-.65,3.57,3.57,0,0,1-.07-1,4.42,4.42,0,0,0-.05-1,.67.67,0,0,1,0-.37,1.41,1.41,0,0,0,.05-.35v-.36a1.46,1.46,0,0,0-.1-.45c-.09-.23-.1-.32,0-.4a.28.28,0,0,0,0-.25.78.78,0,0,1,0-.37,4.7,4.7,0,0,0,0-1.21,9.24,9.24,0,0,1-.06-1.05,4.66,4.66,0,0,0-.2-1.49,1.51,1.51,0,0,1,0-.73.26.26,0,0,0,0-.24.48.48,0,0,1-.06-.28,2.15,2.15,0,0,0,0-.45c0-.23,0-.27,0-.32s.07-.05,0-.09,0-.07.05-.19.11-.16,0-.21-.07-.07,0-.09,0-.67-.11-1a.26.26,0,0,1,0-.21.35.35,0,0,0,0-.3,3.43,3.43,0,0,1-.08-.56c0-.36-.15-.85-.13-1l.22,0s0-.09-.06-.17-.13-.22.08-.18.18,0,.18-.08a.1.1,0,0,0-.08-.1h0c-.05,0-.1,0-.1-.05s0-.05.1-.05.11,0,.11-.18-.15-.32-.12-.51a1.37,1.37,0,0,1,.57,0c.07,0,.07,0,0-2a5.93,5.93,0,0,1,.05-.94c.06-.33.11-.34-.23-.34-.18,0-.42,0-.7,0H139Z" transform="translate(0 0.3)"/></g><g id="Graphic_112" data-name="Graphic 112"><path d="M139,284.77a.83.83,0,0,0-.41.05l-.06.19a3.47,3.47,0,0,0,0,1.66c-.56,0-1.19,0-1.64,0h-.12l0-.85a8.39,8.39,0,0,0,0-.91.14.14,0,0,0-.13-.06c-.19,0-.39,0-.54,0h-.32a3.57,3.57,0,0,1-1,0h-.16c-.33,0-.31.09-.27,1.12,0,.32,0,.7,0,.83h0v.17c-.33,0-.72,0-1,0-.48,0-.5,0-.48-.68a3.54,3.54,0,0,0-.13-1.42h0s-.6,0-1.23.06q-.6,0-1.2.06a13.92,13.92,0,0,0-.16,1.88v0a6.54,6.54,0,0,1-1.17,0,.92.92,0,0,1-.29,0,6.16,6.16,0,0,1-.11-1.31,2,2,0,0,0,0-.6h-2.24v.32c0,.17,0,.51,0,.75s0,.51,0,.78h-.34l-.62,0a.69.69,0,0,1-.35,0h0c0-.08-.1-1.16-.14-1.58a.8.8,0,0,0,0-.26,10.08,10.08,0,0,0-1.91,0,.73.73,0,0,0,.08.25,2,2,0,0,1,.08.73,3.64,3.64,0,0,1,0,.57.91.91,0,0,0,0,.33,5.81,5.81,0,0,1,.07.83v.55l.31,0,.3,0v.33l0,.32.17,0c.16,0,.17,0,.18.18a.29.29,0,0,0,.16.27c.14.07.15.09.13.37s0,.45-.08.65a2.38,2.38,0,0,0,0,.46c0,.15,0,1.28,0,1.64,0,.16,0,.42-.06.58-.1,1-.16,4.89-.12,7.93,0,0,0,.71,0,1.49,0,1.29,0,1.95-.09,3.18a6.91,6.91,0,0,0,0,.79.86.86,0,0,1,0,.39,1.4,1.4,0,0,0,0,.41c0,.19,0,.72,0,1.17v.82l-.37,0a.76.76,0,0,0-.46.12.7.7,0,0,1-.28.12c-.21,0-.21,0-.29.32a5.28,5.28,0,0,1-.34.89,2.21,2.21,0,0,0-.15.48.67.67,0,0,1-.1.28.72.72,0,0,0-.11.19c0,.07-.14.34-.26.6s-.22.48-.22.5a1,1,0,0,1-.11.17c-.13.18-.11.38,0,.41s.54.17.57.28.08.13.39.18a1.94,1.94,0,0,0,.48,0c.13,0,.21.06.13.15a.37.37,0,0,0-.06.21v.16l.6,0a3.26,3.26,0,0,0,.62-.06,1.86,1.86,0,0,1,.8.05.25.25,0,0,0,.17,0,38.53,38.53,0,0,1,5.06,0,.48.48,0,0,0,.29,0,1,1,0,0,1,.33-.08c.2,0,.29-.06.35-.16a3.31,3.31,0,0,1,.25-.3l.15-.18h1.18c1.31,0,1.35,0,1.55.33a.46.46,0,0,0,.29.22.41.41,0,0,0,.22,0,10.92,10.92,0,0,1,1.15-.08s.81,0,1.74,0,1.74,0,1.8.06a.39.39,0,0,0,.21,0,8.6,8.6,0,0,1,1.49-.07h1.36l.19-.14a1,1,0,0,1,.24-.14,2.85,2.85,0,0,0,.6-.31.5.5,0,0,1,.2-.08c.09,0,.17-.06.18-.09s-.1-.15-.24-.26-.26-.21-.26-.25a1.58,1.58,0,0,0-.24-.39c-.31-.41-.37-.52-.37-.67a.78.78,0,0,0-.07-.25,4.69,4.69,0,0,1-.34-1,4.56,4.56,0,0,0-.13-.53,2.12,2.12,0,0,1-.06-.71c0-.36,0-.42-.06-.4l-1.14.36c-.12.05-.14-.05-.17-.74,0-.32,0-.69,0-.81,0-.36,0-.43,0-.47s0-.12,0-.33a.73.73,0,0,1,0-.36,3,3,0,0,0-.1-.94,1.23,1.23,0,0,1,0-.71.47.47,0,0,0,0-.33,1.29,1.29,0,0,1,0-.48,2.81,2.81,0,0,0-.07-.65,3.57,3.57,0,0,1-.07-1,4.42,4.42,0,0,0-.05-1,.67.67,0,0,1,0-.37,1.41,1.41,0,0,0,.05-.35v-.36a1.46,1.46,0,0,0-.1-.45c-.09-.23-.1-.32,0-.4a.28.28,0,0,0,0-.25.78.78,0,0,1,0-.37,4.7,4.7,0,0,0,0-1.21,9.24,9.24,0,0,1-.06-1.05,4.66,4.66,0,0,0-.2-1.49,1.51,1.51,0,0,1,0-.73.26.26,0,0,0,0-.24.48.48,0,0,1-.06-.28,2.15,2.15,0,0,0,0-.45c0-.23,0-.27,0-.32s.07-.05,0-.09,0-.07.05-.19.11-.16,0-.21-.07-.07,0-.09,0-.67-.11-1a.26.26,0,0,1,0-.21.35.35,0,0,0,0-.3,3.43,3.43,0,0,1-.08-.56c0-.36-.15-.85-.13-1l.22,0s0-.09-.06-.17-.13-.22.08-.18.18,0,.18-.08a.1.1,0,0,0-.08-.1h0c-.05,0-.1,0-.1-.05s0-.05.1-.05.11,0,.11-.18-.15-.32-.12-.51a1.37,1.37,0,0,1,.57,0c.07,0,.07,0,0-2a5.93,5.93,0,0,1,.05-.94c.06-.33.11-.34-.23-.34-.18,0-.42,0-.7,0H139Zm-2.52.19a.82.82,0,0,1,0,.22c0,.48,0,.95,0,1.42l0,.27h.33c.6,0,1.6-.06,1.73-.05s.1-.08,0-.13-.08-.1-.05-.65c0-.35,0-.69.05-.76l0-.19s0-.06.08-.06.07.09,0,.56a4.7,4.7,0,0,0,0,.75c0,.19,0,.17.11-.24a6.34,6.34,0,0,0,.07-.75c0-.3,0-.31.15-.34a2.09,2.09,0,0,1,.85.12s.08,0,.1,0a.16.16,0,0,1,.11-.05c.07,0,.07.06,0,.44s0,.87,0,1.38a3.86,3.86,0,0,1,0,1,34.66,34.66,0,0,1-3.81.1l-5,.06-3.37.05-2.81,0a7,7,0,0,1-1.83-.06c-.06-.07-.08-.28-.1-1a11.88,11.88,0,0,0-.07-1.22c0-.31,0-.56.07-.59a4.05,4.05,0,0,1,1.1,0,.76.76,0,0,1,.06.36,4.71,4.71,0,0,0,.18,1.41c.21,0,.47,0,.7,0l.6,0c.3,0,.42,0,.45-.08,0-.29,0-.73,0-1a4.07,4.07,0,0,1,0-.5l0-.17h.79c.61,0,.79,0,.79.07a.2.2,0,0,1-.06.12s0,.1,0,.2a3.94,3.94,0,0,1,.09.76c0,.34,0,.64,0,.68a2.86,2.86,0,0,0,.93,0c.46,0,.89,0,1.24-.06s.26-.07.21-.21,0-.1-.07,0-.13,0-.12-.66c0-.88,0-1,.22-1s.12,0,.07.09a3.47,3.47,0,0,0-.08.55c0,.26,0,.53,0,.6s0,.14,0,.14a3.28,3.28,0,0,0,.14-.94,1.15,1.15,0,0,1,.08-.41,10.6,10.6,0,0,1,1.87,0,9.72,9.72,0,0,1,.13,1.74V287h.26a2.43,2.43,0,0,0,.47,0,6.77,6.77,0,0,0,.9,0l.38,0v-.84a3,3,0,0,0,0-.9s-.06.07,0,.43c0,.89,0,1.06-.11,1.06s-.1,0-.11-.33v-.85l0-.53.33,0a3.39,3.39,0,0,1,.9,0c.28,0,.63-.06.82-.06Zm-8.27.18.1,0c.1.05.11.1.12.45s0,.6,0,.85c0,.41,0,.45-.05.45s-.19-.22-.19-.69a4.17,4.17,0,0,0-.06-.71C128.11,285.27,128.12,285.16,128.21,285.14Zm-3.66.07s.06,0,.09.09a4.67,4.67,0,0,1,.1.75c0,.35.06.69.06.74s-.13.1-.16,0a3.83,3.83,0,0,1-.08-.67c0-.32,0-.66-.06-.74s0-.2,0-.2Zm15.1.18c-.07,0-.14,0-.14,0a.93.93,0,0,1,0,.14c0,.06,0,.22-.05.36l0,.24.15,0c.13,0,.15,0,.15-.19a2.2,2.2,0,0,1,.05-.37c0-.19,0-.19-.1-.19Zm-4.08.06c-.15,0-.19.14-.16.54s.06.41.24.34.08-.12.08-.45,0-.43-.12-.43Zm-4.28,0,0,.4a2.4,2.4,0,0,0,.05.46s.08.06.18,0l.17,0,0-.41a2.12,2.12,0,0,0,0-.44.28.28,0,0,0-.2,0Zm-4.15.1c-.12,0-.14.07-.12.46,0,.18,0,.35,0,.38a.38.38,0,0,0,.24,0s0-.18,0-.4,0-.4-.12-.4Zm-3.4.11a.1.1,0,0,0-.09.07,2.21,2.21,0,0,0,0,.68.09.09,0,0,0,.09.06c.07,0,.08-.07.08-.33a1.35,1.35,0,0,0,0-.4.1.1,0,0,0-.1-.08Zm16,2.39s0,.25,0,.37,0,.25,0,.21a.69.69,0,0,1-.08-.28c0-.16,0-.29.11-.3Zm-.34,0c.07,0,.11.12.13.37s0,.32,0,.32a.1.1,0,0,1-.09-.07,1.27,1.27,0,0,1,0-.61Zm-1.58,0c.12,0,.12,0,.11.27a1,1,0,0,1-.07.33.75.75,0,0,1-.51,0,1.51,1.51,0,0,1,0-.6c.09-.05.17.06.2.28s.07.32.07.06,0-.37.19-.37Zm1,0c.11,0,.18.18.17.42s0,.21-.13.24-.12,0-.12-.32,0-.34.09-.34Zm-.35,0h0c.1,0,.11,0,.11.34s0,.34-.08.35-.19-.1-.16-.41,0-.29.1-.29Zm-.32,0c.09,0,.11,0,.12.3s0,.42-.16.32-.09-.12-.07-.34,0-.28.11-.28Zm-1.24,0a.89.89,0,0,1,.23,0,.58.58,0,0,1,.05.34v.31h-.75c-.85,0-.81,0-.81-.37,0-.14,0-.24.06-.25a10.12,10.12,0,0,1,1.23-.05Zm2.25,0c.05,0,.07.1.11.4s0,.29-.1.18a.76.76,0,0,1,0-.57h0Zm-4.34,0h.48l.17,0v.61h-.47l-1.93,0h0l-1.63,0a7.12,7.12,0,0,1-.8,0c-.33,0-1.26-.05-2-.06-1.59,0-1.6,0-1.6-.33,0-.11,0-.16-.06-.14s0,.12,0,.25l0,.21h-2.5c-.14,0-.15,0-.13-.26v-.25l2.64,0,3.91,0h1.43c.27,0,1.75,0,2.55,0Zm-10.91.05.12,0c.14,0,.14,0,.13.26s0,.24-.18.25l-.17,0v-.25c0-.22,0-.29.1-.29Zm7.41.26s0,.05,0,.12,0,.16,0,.16.05-.06.05-.12a.28.28,0,0,0-.05-.16Zm4.13.42a.14.14,0,0,1,.13.08c0,.08.07.08.12,0a3,3,0,0,1,.79-.08c.66,0,.71,0,.74.08a.19.19,0,0,1,0,.15,11.32,11.32,0,0,1-1.52,0H133c-1.1,0-1.34,0-1.38,0s0-.06-.08,0,0,.09-2.13.12l-1.91,0-.15-.12c-.18-.16-.21-.16-.18,0s0,.13,0,.13l-.18,0a.2.2,0,0,1-.17,0,10.31,10.31,0,0,0-1.24-.07c-.64,0-1.19-.05-1.23-.06s-.16-.16-.12-.21a19.67,19.67,0,0,1,2.51,0,1.94,1.94,0,0,0,.48,0,.11.11,0,0,1,.11,0,1.89,1.89,0,0,0,.47,0c1,0,2,0,2.67,0,.39,0,.76,0,.82,0l2,0c1,0,2-.05,2.13-.07l.2,0Zm2.73,0c.09,0,.1,0,.09.13s-.12.22-.16.09,0-.21.08-.21Zm.92,0a.09.09,0,0,1,.08.08c0,.08,0,.2-.1.14s0-.21,0-.21Zm-1.32,0s.09,0,.09.06a.18.18,0,0,0,.09.12.1.1,0,0,1,0,.12c0,.06-.08.07-.16,0s-.17-.25-.14-.29a.08.08,0,0,1,.08,0Zm1,0h0c.06,0,.09.06.09.14s-.08.19-.14.12a.29.29,0,0,1,0-.16c0-.08,0-.11.07-.11Zm-.31,0h0c.06,0,.09.06.09.14s-.09.19-.17.08,0-.23.06-.23Zm-1,0a.18.18,0,0,1,.15.22h0c0,.07-.09.09-.21,0s-.08-.21,0-.26Zm1.93,0a.07.07,0,0,1,.05.07c0,.08-.06.11-.12.05s0-.1.07-.1Zm-12,.1a0,0,0,0,0,0,0h0s0,.05.08.05.06,0,0-.05a.11.11,0,0,0-.08,0Zm11.74.28h.24a2.78,2.78,0,0,1-.06.58c0,.25,0,.29-.14.35s-.16,0-.2,0a.66.66,0,0,0-.34,0,4.8,4.8,0,0,1-1.26,0,.7.7,0,0,1-.06-.35c0-.32,0-.46-.11-.46s0,.16,0,.44a1.55,1.55,0,0,1,0,.43l-1.52,0a12.13,12.13,0,0,0-1.57.06s-.09,0-.09-.32a.87.87,0,0,0-.07-.45c-.09-.12-.09-.11-.1.36v.36h-1.8a11.48,11.48,0,0,1-1.86-.06,1.37,1.37,0,0,1-.07-.45c0-.32,0-.39.07-.39s1.82,0,5.72-.07c.8.09,2.55-.05,3.27-.05Zm-14.52.06h.55a5.21,5.21,0,0,0,.79,0,.65.65,0,0,1,.31,0c.17,0,.93,0,1.89,0h1.71c.11,0,.11,0,.1.45h0l0,.43-1,0a9.8,9.8,0,0,1-1.17-.05l-.66,0a2.31,2.31,0,0,1-.59,0,.74.74,0,0,1-.06-.36c0-.18,0-.32,0-.31a1.08,1.08,0,0,0,0,.4l0,.36-.12,0a8.57,8.57,0,0,0-1.52-.11h-.42v-.34a1,1,0,0,1,0-.39h.25Zm-.27.84.34,0,.9.08c.31,0,.61.06.68.06s.1,0,.09.06a.07.07,0,0,1-.08,0s-.06.12,0,.54l0,.55H126a.83.83,0,0,1-.35-.05.63.63,0,0,1-.1-.32c0-.15-.06-.27-.09-.27a1.18,1.18,0,0,0,.05.55c0,.12-.07.16-.16.06a1.59,1.59,0,0,0-.48-.07,3.4,3.4,0,0,1-.46-.06,4.17,4.17,0,0,1,0-.61Zm14.66.21h.29l0,.5a2.35,2.35,0,0,1,0,.53,1.55,1.55,0,0,1-.31.06c-.25,0-.27,0-.31-.09a2.21,2.21,0,0,1,0-.94.7.7,0,0,1,.35-.06Zm-.79,0c.21,0,.29,0,.25.09a2.57,2.57,0,0,0,0,.48c0,.3,0,.46,0,.49a1.38,1.38,0,0,1-.45.08c-.31,0-.4,0-.42,0a3.66,3.66,0,0,1-.05-.57l0-.49.42,0h.28Zm-1.06,0,.09,0c.14,0,.15.12,0,.12a.27.27,0,0,0-.16.06c0,.05,0,0,0-.06s.05-.12.07-.13Zm-9.85,0h.17l4.9,0a35.21,35.21,0,0,1,4.42.09,1.76,1.76,0,0,0,0,.4,3.33,3.33,0,0,1,0,.49v.16l-.65,0a2.29,2.29,0,0,1-.69-.08,1.23,1.23,0,0,1,0-.38c0-.18,0-.32-.05-.32s-.07.12-.07.55v.22l-1.54,0-1.63,0c-.06,0-.11,0-.14-.24s-.05-.32-.07-.41l-.05-.27c0-.17-.13-.07-.1.11s0,.37.05.61,0,.45,0,.45,0,0,0-.07a.08.08,0,0,0,0-.1,6.84,6.84,0,0,0-.91-.06,9.54,9.54,0,0,0-1.31,0c-.23,0-.36,0-.39-.05a1.63,1.63,0,0,1-.09-.45,1,1,0,0,0-.07-.39,1,1,0,0,0-.05.43c0,.4,0,.42-.11.45a10.26,10.26,0,0,1-1.57,0c-.07,0-.1-.14-.15-.56a3.86,3.86,0,0,1,0-.58.77.77,0,0,1,.3,0Zm-1.85.09h0a.12.12,0,0,0,0,.1s0,.08,0,.08,0-.05,0-.11,0-.08,0-.08Zm1.09,0s0,0,0,0a.39.39,0,0,1-.08.14c-.07.1-.1,0,0-.1a.12.12,0,0,1,.09-.07Zm.33.5s0,0,0,.05a.2.2,0,0,1-.06.14c-.08.1-.08.1-.07,0s.06-.14.1-.13Zm-2.53.46.23,0c.13,0,.51.06.85.08l.63.05.07.07c0,.05.07.21,0,.59v.52h-.5a7.07,7.07,0,0,1-.77-.05,1.15,1.15,0,0,0-.32,0h-.14c-.08,0-.09-.09-.08-.65Zm2.1.11s0,0,0,.05a.06.06,0,0,1-.06.05s0,0,0-.05l.06,0Zm12.79,0h.08a9.38,9.38,0,0,1,0,1.06,9.16,9.16,0,0,0,0,1.17,22.27,22.27,0,0,1,.14,2.45v.28l-.64.09a7,7,0,0,1-.92.07h-.28l-.05-.21a4.48,4.48,0,0,1,0-.64c0-.79,0-1-.08-1a2.88,2.88,0,0,0-.15,1.32l0,.65h-3v-.19c0-.1,0-.5,0-.87,0-.53,0-.69-.07-.71s-.06,0,0,.08a.12.12,0,0,1,0,.14,2.1,2.1,0,0,0-.08,1.14c0,.3,0,.38,0,.42a27.63,27.63,0,0,1-3.41,0,8.42,8.42,0,0,1-.07-1c0-.93-.07-1.18-.18-1a6.23,6.23,0,0,0,0,1.06v1h-.26c-.86,0-1.12,0-1.57,0a3.31,3.31,0,0,1-.54-.06,3.77,3.77,0,0,0-.58,0,2.15,2.15,0,0,1-.56,0,3.09,3.09,0,0,1,0-.93c0-.64,0-.92-.1-.93s-.09,0-.12.25a8.77,8.77,0,0,0,0,1.87c.32,0,.65.05,1,.05a7.55,7.55,0,0,1,.95,0s0,.58,0,1.25v1.22h-.91c-.5,0-.92,0-.93,0l-.55,0h-.53v-1.3a10.4,10.4,0,0,0,0-1.37c-.08-.12-.28-.16-.8-.18a1.69,1.69,0,0,1-.55-.06c0-.07,0-3.54,0-3.61s.09,0,.17,0l.87.06.76.05a.71.71,0,0,1,0,.29v.27h.91v-.57h.49c.27,0,.81,0,1.2.06,1.36.1,1.74.11,2.82.11h1.09l-.05.12a2.58,2.58,0,0,0,0,1l0,.25-1.75,0-1.79-.05a2.71,2.71,0,0,1-.13-.73c0-.11,0-.21-.05-.32s-.12.05-.1.23,0,.31.05.5l0,.34h-.36a1.17,1.17,0,0,1-.49-.07c-.07-.05-.11-.06-.11,0s-.13,0-.4,0l-.65-.05c-.41,0-.94-.08-1.42-.14s-.72,0-.69.08.4.15,1.68.23c.44,0,.87.06,1,.08s.52,0,1,.06l1.76.07c1.14.07,2.8.12,3.25.11l1.2,0c.48,0,1.25-.05,1.71-.08s1.24-.06,1.73-.07a6.49,6.49,0,0,0,.88-.05v-.11a.16.16,0,0,0-.12-.12.32.32,0,0,1-.16-.14c0-.09,0-.08-.07,0s-.06.13-.68.19a22,22,0,0,1-2.3.09c-.16,0-.19-.06-.24-.22a1.15,1.15,0,0,1-.06-.37c0-.26-.06-.5-.12-.5s0,.22,0,1c0,.13,0,.15-.09.14s-.57,0-1.15,0-1.07,0-1.11-.05a2.6,2.6,0,0,1-.14-.93l0-.37h1c.54,0,1.19,0,1.44,0l1.09-.06.63,0v.56l.3,0c.54,0,.54,0,.5-.32s0-.26,0-.27a3.81,3.81,0,0,1,.59-.07,1.88,1.88,0,0,0,.52-.08c0-.09-.14-.1-.59-.05s-.47,0-.5,0a2.78,2.78,0,0,1,0-.58v-.51l.81-.06.76,0Zm-2.75.08h.1l.24,0V293l-.3,0c-.36,0-.36,0-.33-.61s.07-.59.29-.6Zm-3,0c1.12,0,2.61,0,2.63,0a7.36,7.36,0,0,1,0,1.15l-.8,0-1,0c-.22,0-.24,0-.26-.11a5.44,5.44,0,0,1,0-.57A1.13,1.13,0,0,0,134,292c-.06-.06-.08.17-.08.95a.82.82,0,0,1,0,.35s0,0,0-.06-.18-.05-.6,0c-.87,0-1.1,0-1.07-.07a.39.39,0,0,1,.17-.14c.19-.11.21-.36.07-.75a1.14,1.14,0,0,1-.08-.33s.55,0,1.22,0Zm-5.26,0,.85,0a6.77,6.77,0,0,1,.89.06s0,.1,0,.19a3.29,3.29,0,0,0-.05.54v.39h-.33a9.5,9.5,0,0,1-1.31-.06c-.11,0-.12-.05-.12-.47a5.12,5.12,0,0,1,0-.56Zm-1.08,0h.47c.42,0,.46,0,.45.12s0,.3,0,.55a1.69,1.69,0,0,1-.07.45,2.22,2.22,0,0,1-.63,0l-.22,0v-.39a3.39,3.39,0,0,1,0-.55Zm3.35,0a2.81,2.81,0,0,1,.76.08s0,.08,0,.13-.11.49.08.81c.08.15.12.26.08.25a3.35,3.35,0,0,0-.49-.08c-.35,0-.46,0-.58,0l-.15.07s0-.29,0-.64l0-.62.16,0h.23Zm-4.07,0s0,0,.09.07,0,.08,0,.1-.07,0-.1-.07,0-.1,0-.1Zm11.06.21h0a.2.2,0,0,1,.12.08c0,.09-.07.08-.15,0s0-.07,0-.07Zm-5.65.1a.06.06,0,0,1,.06,0,.06.06,0,0,1-.06.05.05.05,0,0,1-.05-.05.07.07,0,0,1,.06,0h0Zm5.57,0a.05.05,0,0,1,0,0,.14.14,0,0,1,0,.09c0,.05,0,.05-.06,0s0-.11,0-.11Zm-10.89.26a.06.06,0,0,1,.06,0,.12.12,0,0,1,0,.11c0,.05,0,0-.09,0s0-.13,0-.13Zm-.12.25a.08.08,0,0,1,.07.08c0,.08-.06.1-.11,0s0-.11,0-.11Zm.29.06c.11,0,.11,0,0,0a.18.18,0,0,0-.09.13.07.07,0,0,1-.06.07s0,0,0-.08l0-.13s0,0,.12,0Zm12,.33h0a2.6,2.6,0,0,0,0,.88c.07.13.13,0,.12-.21a1.52,1.52,0,0,0-.09-.67Zm-12.09.07s0,0,0,.06a.06.06,0,0,1-.06.05,0,0,0,0,1,0-.05.1.1,0,0,1,.07-.05Zm-2.13,3.6a4.52,4.52,0,0,1,.53,0c.44,0,.56,0,.6,0s0,0,0,.19a3.59,3.59,0,0,0,0,.47c0,.17,0,.22-.08.22s-.1.08,0,.15.07.24.07.85v.79h-.19a.5.5,0,0,1-.21,0,2.32,2.32,0,0,0-.38-.06,1.74,1.74,0,0,1-.39,0,21.69,21.69,0,0,1,0-2.55h.05Zm15.1.08c.1,0,.12.15.15,1,0,.54,0,1.08,0,1.19s0,.21-.1.21a1.77,1.77,0,0,0-.3,0c-.25,0-.36,0-.28-.19a2.83,2.83,0,0,0,0-.77c0-.37,0-.83,0-1V297l.21,0,.26,0h0Zm-.76.08h.07s0,.51,0,1.09a8.93,8.93,0,0,0,0,1.16c0,.11,0,.12-.13.12a2.2,2.2,0,0,0-.37.05,12.18,12.18,0,0,1-2.13.12,3.47,3.47,0,0,1-.07-.79,8.17,8.17,0,0,0-.1-1.31c-.13-.13-.17.52-.08,1.19,0,.19.07.5.08.69l0,.33h-.86c-.47,0-1.06,0-1.29.05a5.78,5.78,0,0,1-.72,0l-.27,0,0-.39a9.14,9.14,0,0,0,0-2c-.06,0-.06,0-.06.1s0,.09-.06.09a3.89,3.89,0,0,0-.07,1.78,1.11,1.11,0,0,1,0,.36.8.8,0,0,1-.43,0s-2-.08-2.84-.09c-.54,0-.69,0-.73-.09a1.75,1.75,0,0,1,0-.56,12.06,12.06,0,0,0,0-1.7l0-.19h.28c.37,0,.66.08.62.18s0,.07.05.07a.08.08,0,0,0,.07-.08h0c0-.1.14-.11,1.22,0l1,0c.28,0,.29,0,.26.1a.76.76,0,0,1-.09.18s0,.06.09.06.13,0,.13-.12.1-.26,1.12-.27l1.75,0a4.83,4.83,0,0,1,.85,0,.93.93,0,0,0,.33,0,7.93,7.93,0,0,1,.84-.07,4.87,4.87,0,0,0,.76-.06,3.1,3.1,0,0,1,.67-.1Zm1,2.54c.07.63.1,1.26.11,1.9a1.5,1.5,0,0,0,0,.42.3.3,0,0,1,0,.18v.13l-.93.09h0l-1,.11a.16.16,0,0,1-.16,0,3.82,3.82,0,0,1-.06-.83,6.7,6.7,0,0,0-.05-1,3.86,3.86,0,0,1-.06-.49v-.26l.55,0,.65,0a4.13,4.13,0,0,0,.49-.07l.42-.08Zm-15.4,0,.21,0a8.37,8.37,0,0,0,1.58.15h.63v1.13c0,.41,0,.82,0,1.23,0,.1,0,.11-.17.14a.48.48,0,0,1-.29,0s-.07,0-.1,0a.12.12,0,0,0,0,.13,12.47,12.47,0,0,0,1.49.12,4.41,4.41,0,0,1,.89,0,7,7,0,0,1,0,.8v.78h.3c.21,0,.29,0,.26,0a1.22,1.22,0,0,0,0,.32v.26l-.32,0c-.32,0-.51,0-.57-.11a6.69,6.69,0,0,1,0-1,6.63,6.63,0,0,0-.06-1c-.08-.09-.12.29-.13,1.19v.89h-.21a13.26,13.26,0,0,1-1.67-.12c-.22-.06-.25-.13-.24-.43,0-.08,0-.51,0-1l0-.8.13-.06c.14-.05.14-.06-.15-.15a5.24,5.24,0,0,0-.79-.15l-.66-.08-.16,0,0-.7c0-.38,0-.91,0-1.18Zm13.1.19v.62c0,.35,0,.92.05,1.28.07.74,0,.79-.28.78a5.75,5.75,0,0,0-1,.09c-.11.07,0,.18.12.18a.59.59,0,0,1,.23,0,4.25,4.25,0,0,1,.09,1.13c0,.61,0,1.18.06,1.27l0,.16h-.66c-.64,0-.67,0-.87-.13a2.16,2.16,0,0,0-.36-.22c-.16-.06-.23-.21-.1-.21a3.43,3.43,0,0,1,.52.23c.52.26.49.25.49.18a.08.08,0,0,0-.07-.05,5.86,5.86,0,0,1-.55-.3c-.35-.21-.49-.32-.5-.41s0-.11,0-.11.05,0,.05.07.11.11.27.16a3.06,3.06,0,0,1,.49.22,2.06,2.06,0,0,0,.26.12,3.07,3.07,0,0,0-.69-.43.19.19,0,0,1-.11-.07c0-.09.28-.15.36-.08s.45.21.45.16-.08-.09-.18-.15-.18-.14-.18-.21,0-.1,0-.1l.43.21c.42.21.64.27.42.11a2.38,2.38,0,0,0-.8-.39c-.14,0-.25-.25-.3-.63s0-.28.34-.11a1.48,1.48,0,0,0,.27.1c.09,0-.09-.14-.35-.27s-.33-.24-.1-.24a.43.43,0,0,1,.31.12c.15.15.29.18.16,0s-.1-.16.09-.16a.34.34,0,0,0,.2,0c0-.06,0-.15-.12-.16l-.28,0c-.11,0-.21,0-.24,0s-.09,0-.23,0-.34,0-.27.37c0,.14.06.43.07.67l0,.42h-.18a1.78,1.78,0,0,0-.55.14s0,0,0,.08a3.61,3.61,0,0,1,.2,1.18c0,.58,0,.59-.28.6s0,.09.46.12a5,5,0,0,1,.66.08l.18.05v.32c0,.18,0,.55,0,.82,0,.47,0,.5.14.49s.11-.06.13-.17,0-.16.27-.17.24,0,.24-.13-.26-.35-.5-.41a.16.16,0,0,1-.11-.17c0-.15.08-.14.56.13.19.1.31.15.3.1a.5.5,0,0,0-.17-.15,2.3,2.3,0,0,1-.33-.19.81.81,0,0,0-.27-.11c-.06,0-.09,0-.09-.13s0-.13.11-.1a5.39,5.39,0,0,1,.8.39c.16.1.26.1.19,0a3.53,3.53,0,0,0-1-.5c-.07,0-.09,0-.09-.16s0-.18-.18-.14-.21,0-.27-.06a1.64,1.64,0,0,0-.25-.21c-.1-.07-.17-.14-.17-.17s.25,0,.46.11a4.13,4.13,0,0,0,1.23.66c0-.08-.23-.22-.52-.35a2.11,2.11,0,0,1-.4-.26c-.16-.13-.17-.15-.09-.19a.19.19,0,0,1,.18,0,1,1,0,0,0,.48.19s0,0,0,0a.19.19,0,0,1-.18-.17.68.68,0,0,1,.2,0,8.6,8.6,0,0,0,1.34-.07,8.8,8.8,0,0,1,1-.1,11.7,11.7,0,0,0,1.19-.13.67.67,0,0,1,.37,0c.12,0,.12.06.12.65,0,.33,0,.73,0,.89l0,.29-.2.05a14,14,0,0,1-1.83.15,7.2,7.2,0,0,1-.14-1.39c0-.15-.1-.4-.16-.34a7.7,7.7,0,0,0,0,1.44l0,.34-.42,0c-.45,0-.57.07-.51.16a1.62,1.62,0,0,0,.62,0l1.19-.07.6,0,0,.65c0,.36,0,.8.06,1l0,.3h-1.06c-.58,0-1.15,0-1.27,0-.28,0-.35,0-.35-.25s-.05-.49-.16-.49-.1,0-.09.35a4.15,4.15,0,0,1,0,.49c0,.11,0,.14.06.14.26,0,.81,0,1.2,0s.45,0,.45,0,0,.48.11,1,.09,1,.09,1,0,.11-.82.12a5.82,5.82,0,0,0-1,.06c-.16.05-.22.05-.29,0a.75.75,0,0,0-.42-.2c-.09,0-.11,0-.11-.18s0-.18,0-.18l.45.23c.24.13.43.22.43.19a2.76,2.76,0,0,0-.7-.47c-.21-.12-.33-.34-.19-.39a2.06,2.06,0,0,1,.57.25c.59.33.77.42.7.36a2.26,2.26,0,0,0-.59-.42.68.68,0,0,1-.23-.14,1.74,1.74,0,0,0-.33-.18c-.15-.05-.25-.24-.18-.35s.21,0,.85.43.81.5.56.27a6.33,6.33,0,0,0-1-.68c-.27-.15-.37-.24-.4-.35s0-.14.1-.1a3.55,3.55,0,0,1,1,.51,2.59,2.59,0,0,0,.46.26c.06-.07-.76-.64-1.22-.84-.26-.11-.24-.17,0-.17s.32,0,.28-.14-.1-.07-.21-.07a.48.48,0,0,1-.36-.15.53.53,0,0,0-.26-.15c-.07,0-.1,0-.1-.13s.07-.16.39,0,.48.21.48.16,0-.05-.11-.08a1.92,1.92,0,0,1-.35-.23.91.91,0,0,0-.34-.17c-.1,0-.12,0-.12-.16s.11-.21.25-.08.57.28.6.23,0-.06-.07-.08a3.46,3.46,0,0,1-.46-.32c-.31-.23-.37-.3-.37-.42s0-.17-.64-.15c-.33,0-.54.08-.54.17a2,2,0,0,0,.55,0h.54l0,.16a2.13,2.13,0,0,0,.06,1,.27.27,0,0,1,.06.21c0,.12,0,.13-.45.14a3.31,3.31,0,0,0-.55,0c-.21,0-.12.12.18.15s.45.05.63.08l.35.06v.31c0,.17,0,.64.08,1s.07.73.07.74a2.27,2.27,0,0,1-.52,0c-.52,0-.79.08-.73.18a.63.63,0,0,0,.33,0,1,1,0,0,1,.35,0c.07,0,0,.18-.06.18s-.06.15-.05.58,0,.66,0,.76h0l0,.2h-.33c-.36,0-.35,0-.41-.39a19.06,19.06,0,0,1-.1-2.27,4.48,4.48,0,0,0-.09-1.33c-.05-.1-.07-.09-.1.34s0,.82,0,1.23a11.3,11.3,0,0,1,0,2s-.08-.06-.13-.13-.07-.14,0-.21,0-.08,0-.07-.14-.24-.13-1.6c0-.77,0-1.67-.06-2.12-.09-1-.17-2.63-.14-2.72s.11,0,.15.58c0,.34,0,.7.05.81s0,.38,0,.59a3.45,3.45,0,0,0,.13,1c.09.17.1-.11,0-.95,0-.48-.09-1.15-.11-1.5s0-.7-.05-.76-.18-.15-.18,0,0,.09,0,.08a2.77,2.77,0,0,1-.11-.64c0-.33-.08-.74-.11-.92a1.59,1.59,0,0,1,0-.38.6.6,0,0,0,0-.3,2,2,0,0,1-.08-.33c0-.09,0-.09.07,0a4.33,4.33,0,0,1,.29,1.36c.08.69.12.84.18.77a16.13,16.13,0,0,0-.37-2.67,1,1,0,0,0-.21-.4,1.15,1.15,0,0,0-.58-.34.9.9,0,0,1-.23-.08,1,1,0,0,0-.46-.07c-.25,0-.29,0-.29.12a.15.15,0,0,1-.07.12s-.06,0-.05-.07,0-.1-.18-.09-.29.06-.55.4a2.74,2.74,0,0,0-.46,1c0,.11,0,.21-.08.32a.78.78,0,0,1-.21-.09,2.31,2.31,0,0,0-.89-.24l-.34,0,0-.76a3.42,3.42,0,0,0-.08-.84c0-.05-.23-.07-.82-.07a2.53,2.53,0,0,1-.85-.06A3.59,3.59,0,0,1,127,301a4,4,0,0,0,0-1c-.1-.19,0-.21.59-.17a13.57,13.57,0,0,0,1.56.07h.43c.28,0,3.21.07,3.5.06,1.7,0,2.94-.06,3.45-.1l.76-.06Zm-4.22.39a.16.16,0,0,0-.14.13c0,.09.15.09.19,0s0-.1,0-.11h-.05Zm-2.17,0c-.08,0-.08,0-.07.24a1.83,1.83,0,0,0,.14.57,6.37,6.37,0,0,1,.21.66,2.91,2.91,0,0,0,.16.5c.11.21.14.13.07-.23,0-.17-.08-.42-.11-.57a1.32,1.32,0,0,0-.15-.39c-.05-.08-.08-.16-.05-.17s0-.24-.09-.35,0-.14.35-.09a5.7,5.7,0,0,0,1.42,0c.18-.1-.09-.14-.86-.12-.24,0-.85,0-1,0Zm-1.54.09h0a2.43,2.43,0,0,0,0,.6c0,1.37,0,1.24-.16,1.25a1,1,0,0,1-.34,0c-.21-.05-.33,0-.21.08a2.48,2.48,0,0,0,.39.1l.38,0a4,4,0,0,0,.18-1.53c0-.21,0-.24.1-.24a3.78,3.78,0,0,1,.81.24c.22.09.28.08.26,0a2.67,2.67,0,0,0-1-.38.37.37,0,0,1-.2-.07.18.18,0,0,0-.12,0Zm4.67.15a2.78,2.78,0,0,0-.49.08c-.23.07-.5.06-.54,0a.12.12,0,0,0-.08,0s0,0,0,0,0,.07,0,.09a2.81,2.81,0,0,0-.21.68c-.08.35-.15.68-.17.73s.08.08.16-.13l.16-.37a1.08,1.08,0,0,0,.14-.58.1.1,0,0,1,0-.12h0a8.77,8.77,0,0,1,1-.11s0,.3,0,.65,0,.68,0,.73,0,.12-1.09.31c-.12,0-.19.05-.17.08s.12,0,.22,0a7.37,7.37,0,0,1,2-.06c.18.06.1-.06-.14-.22l-.47-.32-.21-.16,0-.47c0-.25,0-.51.06-.57a.19.19,0,0,0-.06-.2.36.36,0,0,0-.25-.06Zm-4.14.46s0,0,0,.05,0,.08.05.08a0,0,0,0,0,.05,0h0a.1.1,0,0,0-.05-.08Zm4.76.11s0,0,0,0,.18.29.26.29a2.12,2.12,0,0,1,.36.21c.36.23.35.22.35.16a1.4,1.4,0,0,0-.33-.27,1.46,1.46,0,0,1-.34-.26s-.07-.07-.15-.11a.31.31,0,0,0-.13-.06Zm-.12.29c-.08,0,0,.13.21.24l.5.33c.28.22.34.23.34.13a5.31,5.31,0,0,0-1-.69h0Zm0,.25c-.09,0,0,.2,0,.23a3.87,3.87,0,0,1,.55.34,2.27,2.27,0,0,0,.48.27s-.27-.28-.55-.47c-.12-.07-.21-.17-.21-.21a.48.48,0,0,0-.31-.17Zm-1.61.31s-.08,0-.08.05a0,0,0,0,0,.05,0h0a.1.1,0,0,0,.08,0s0-.06,0-.06Zm1.46.15a.06.06,0,1,1-.06.05A.06.06,0,0,1,134.51,302Zm-10.16.13a.23.23,0,0,1,.11,0c.21.05.42.1.63.13a2.1,2.1,0,0,1,.55.13,7,7,0,0,1,0,1.12v1.08l-.21,0a2.22,2.22,0,0,1-.37-.09c-.12,0-.19-.06-.22,0a19.12,19.12,0,0,0,0,2.31h0c0,.18.07.18-.37.12l-.23,0v-.72c0-.39,0-.92,0-1.16l0-.46.18,0c.25,0,.25-.1,0-.18s-.18,0-.15-.54c0-.22,0-1.3-.08-1.49s0-.23.1-.23Zm5.62.18c-.36,0-.25.09.22.17a3.57,3.57,0,0,1,.47.11c.05,0,.22,0,.22,0a2.75,2.75,0,0,0-.92-.27Zm9.92,0,0,0a1,1,0,0,1,0,.34c0,.3.05.78.15,1.64.07.54,0,.62-.2.66l-.37.06c-.22,0-.25,0-.25-.57a5.78,5.78,0,0,0-.05-.71,3.58,3.58,0,0,1,0-1.32.78.78,0,0,1,.22,0,1,1,0,0,0,.3-.05.32.32,0,0,1,.14,0Zm-1,.18a9.09,9.09,0,0,1,.11,1.59,3.79,3.79,0,0,0,.06.67c.05.18.05.27,0,.31a3.71,3.71,0,0,1-.88.1c-.45,0-.9.06-1,.07-.29.06-.32,0-.33-.85a8.83,8.83,0,0,0-.09-1.45c0-.13,0-.17.08-.2a9.84,9.84,0,0,1,1.2-.15l.58-.05a1.07,1.07,0,0,1,.25,0Zm-7.4.21h0s-.15.36-.22.39,0,.05,0,.09,0,0,.15-.06a1,1,0,0,1,.55-.33.6.6,0,0,1,.25.1.36.36,0,0,0,.19.07s0,0,0,0a.92.92,0,0,0,.26.22c.21.13.25.19.25.3s0,.14-.11.12-.1,0,0,.08.27.26.18.31-.14.06-.23-.08-.11-.11-.13-.09-.12,0-.19-.07-.37-.19-.37-.13.16.19.27.23.13.19,0,.19a6,6,0,0,1-1.16-.71s-.08,0-.14.24l-.14.47a32,32,0,0,0,.06,4.61.14.14,0,0,1,0,.17,1.27,1.27,0,0,0,0,.55,4.14,4.14,0,0,1,0,1.54s-.06,0-.06,0,0,.06.07.06.08.11.08.59,0,.82,0,1.09c.05.52,0,.64-.21.91s-.16.14-.21.07,0-.87,0-1.88,0-1.95,0-2.09,0-.62-.05-1.07,0-1.28-.07-1.82c-.12-2.2-.08-2.89.19-3.35a.74.74,0,0,0,.11-.24c0-.14.46-.53.61-.54Zm1.49.3a.05.05,0,0,1,.05.05h0s0,.06,0,.06,0,0-.06-.06,0-.05,0-.05Zm3,0c-.08,0-.08,0,0,.05s.1.07.1,0S136,303,136,303Zm-4,0s0,0,0,.05a2,2,0,0,0,.35.28c.38.26.36.25.36.19s-.1-.12-.22-.2a1.7,1.7,0,0,1-.3-.23.32.32,0,0,0-.17-.09Zm-.36.17h0s0,.1.29.26.26.13.15,0a1.17,1.17,0,0,0-.42-.27Zm1.51.07a.56.56,0,0,1,.13.19.63.63,0,0,1,.1.27s-.24-.38-.23-.46Zm2.84.07c-.1,0-.1,0,0,.07s.23.1.15,0a.27.27,0,0,0-.17-.08Zm-.61.06h-.08s0,0,.45.3.74.32.35.05l-.33-.25a.89.89,0,0,0-.38-.12Zm-4,.19a2.58,2.58,0,0,1,.42.25l.49.3a2.19,2.19,0,0,0,.88.06c.13,0,.13,0,.11.37a.93.93,0,0,1-.06.4c-.08,0-.06.11,0,.11s.07.05.07.15-.13.2-.42-.08a1.24,1.24,0,0,0-.32-.23s-.07,0-.07-.05,0-.05-.08-.05,0,.19.37.4c.52.32.51.31.59.74s.05.51-.09.38a2.35,2.35,0,0,0-.56-.39,4.31,4.31,0,0,1-.4-.32c-.51-.45-.85-.68-.85-.58a.25.25,0,0,0,.14.16,5.54,5.54,0,0,1,.45.37,6.4,6.4,0,0,0,.71.55c.23.15.45.31.5.35s.21.38.17.42-.34-.21-.8-.61a2,2,0,0,0-.47-.35.36.36,0,0,1-.17-.11,1.14,1.14,0,0,0-.25-.18,1.65,1.65,0,0,1-.27-.19c-.09-.08-.11-.09-.11,0a1.55,1.55,0,0,0,.58.5,7.06,7.06,0,0,1,1.17.88c.23.21.34.34.34.41s.05,1.24.08,1.43l0,.18-.22,0-.41-.07c-.17,0-.19,0-.19.06s0,.1,0,.1l.26,0c.32,0,.45.07.49.16a.19.19,0,0,1,0,.11h0a2.87,2.87,0,0,1-1,0,6.16,6.16,0,0,1-.15-1.36l0-.6.19,0a.37.37,0,0,0,.29-.05c.09-.07.09-.08-.09-.24l-.48-.4c-.16-.12-.4-.33-.53-.44a.84.84,0,0,0-.31-.22c-.16,0-.26-.13-.26-.35s0-.21.05-.21,0,0,0-.09a1.67,1.67,0,0,1-.08-.3l0-.21.24,0a.77.77,0,0,1,.27.07.71.71,0,0,0,.14.1c.12.06.12,0,.09-.07s0-.13.14-.14l.37,0a.51.51,0,0,1,.32.05c.15.1.17.1.17,0s0-.07.13-.06.12,0,.12-.07,0-.1-.24-.07l-.24,0-.56,0-.67,0c-.18.05-.25,0-.21-.26l.05-.19h.25a2,2,0,0,0,.43,0c.3-.05.17-.11-.25-.1s-.41,0-.43-.09,0-.44.08-.44Zm2.79.54c-.06,0-.13,0-.13.08s0,.05.1.05.13-.05.07-.12Zm-4.78,0h.16a1.66,1.66,0,0,1,.49.11l.34.1v.88c0,.48,0,.91,0,1a3.44,3.44,0,0,0,0,.64,22.2,22.2,0,0,1,.06,2.6c-.2,0-.41,0-.62,0-.43,0-.61,0-.63-.05a10.85,10.85,0,0,1,0-1.89c0-.1.07-.11.41-.11s.47-.05.29-.15a8.55,8.55,0,0,0-1.24-.13c-.07,0-.11-.41-.15-1.4,0-.21,0-.21-.16-.21h-.15l0,.34c0,.19.06.53.09.76.08.62.09.62-.35.59-.25,0-.37,0-.37,0s0,.06.12.06h.13l0,.68c0,.37,0,.86,0,1.1s0,.42-.06.42h-.44a2.59,2.59,0,0,0-.48,0,2.38,2.38,0,0,1-.8-.05s0-.46,0-1,0-1,0-1.12l0-.17.39,0a1,1,0,0,0,.39,0c0-.11-.16-.15-.59-.18-.59,0-.77-.08-.85-.17a3,3,0,0,1-.08-1,6.17,6.17,0,0,0-.06-1.05,1.17,1.17,0,0,1,0-.2c0-.05.34,0,.63.06a3.79,3.79,0,0,0,.67.06,2.28,2.28,0,0,1,.52,0,5.33,5.33,0,0,1,.08,1.2c0,.63,0,1.18.06,1.21s.44.07.44,0,0-.06-.11-.07-.1-.07-.1-.35c0-1.42,0-1.73-.18-1.86s-.07-.09-.06-.11a3.87,3.87,0,0,1,.68,0c.36,0,.68,0,.71,0l.48-.05.42,0v.28a.65.65,0,0,1-.05.31.11.11,0,0,0,0,.12c0,.06.11.08.49.09s.56,0,.41-.12a1.2,1.2,0,0,0-.32-.06c-.24,0-.26,0-.29-.22a5.57,5.57,0,0,1-.06-.65Zm3,.21a.08.08,0,0,0-.1.08s0,.07.1.07.1,0,.1-.07a.12.12,0,0,0-.11-.1Zm.61,0c-.06,0-.1,0-.1.08s0,.07.1.07.1,0,.1-.07a.11.11,0,0,0-.1-.1Zm-1.35,0c-.09,0-.11.09,0,.16a.12.12,0,0,0,.17,0s0,0,0-.05-.05-.08-.12-.09Zm.94,0s0,0,0,.05.18.11.18,0,0,0,0,0l-.1,0Zm-.44.71h0a3.87,3.87,0,0,0,.85.76.76.76,0,0,0,.28.15s0,0,0-.05l-.28-.22a.71.71,0,0,0-.23-.19.33.33,0,0,1-.1-.12.37.37,0,0,0-.17-.16.59.59,0,0,1-.19-.11.18.18,0,0,0-.13-.06Zm2.67,0a.14.14,0,0,1,.12.06.28.28,0,0,0,.15.08.06.06,0,0,1,.06,0h0c0,.1-.3.06-.36,0s0-.14,0-.14Zm1.58.72h0s0,.05,0,.08l.22.12h0c.17.1.23.1.15,0a.62.62,0,0,0-.38-.2Zm-1.4.09a.34.34,0,0,1,.17.05c.1,0,.09,0,0,0a.25.25,0,0,1-.17,0s0-.06,0-.06Zm-3.66.1a1.32,1.32,0,0,1,.44.3l.31.24a3.91,3.91,0,0,1,.76.59s-.11,0-.25,0-.27,0-.53-.25-.65-.46-.65-.37a1.09,1.09,0,0,0,.26.21c.43.29.61.46.61.59s-.14.16-.51-.1c-.53-.37-.51-.34-.51-.83,0-.32,0-.43.07-.43Zm5.69.92s0,0,0,.05,0,0,.08,0,0,0,0,0a.15.15,0,0,0-.09-.06Zm-12.7.15h.13a5.92,5.92,0,0,1,1.25.2,4.71,4.71,0,0,1,.06,1.18,7.45,7.45,0,0,1,0,1.12l-.09,0a3.23,3.23,0,0,0-.76,0h-.69l0-.52c0-.28,0-.83.06-1.22Zm7,0a4.32,4.32,0,0,1,1,.62.63.63,0,0,1,.07.3c0,.24,0,.25-.27.14s-.09.08.09.16.18.12.18.23,0,.14,0,.14a1.62,1.62,0,0,1-.35-.17c-.28-.17-.46-.23-.4-.14a4.63,4.63,0,0,0,.46.31c.36.21.43.29.43.39s0,.16-.21,0a.54.54,0,0,0-.16-.1,1.62,1.62,0,0,1-.33-.13c-.28-.12-.38-.14-.31,0a4.52,4.52,0,0,0,.88.56,2.6,2.6,0,0,1,.49.28,3.1,3.1,0,0,0,.57.3c.16,0,.24.1.24.15a.47.47,0,0,0,0,.17c0,.12-.09.1-.35,0a10.22,10.22,0,0,1-1-.59,3.26,3.26,0,0,0-.62-.31c-.12,0,0,.09.27.25s1.36.81,1.48.91a.29.29,0,0,0,.16.07c.07,0,.09,0,.08.11a.13.13,0,0,1-.1.13,2.19,2.19,0,0,1-.65-.36,1.86,1.86,0,0,0-.34-.19A3.43,3.43,0,0,1,132,310a.72.72,0,0,0-.27-.15s-.08,0-.15,0a.46.46,0,0,0-.2-.05c-.06,0-.09-.08-.13-.41a4.54,4.54,0,0,1-.06-.5v-.32c0-.17,0-.24.07-.24s.09-.09,0-.12-.09-.3,0-.3a1,1,0,0,1,.25.13.84.84,0,0,0,.27.13c.12,0-.19-.26-.38-.31l-.19-.06v-.31a1,1,0,0,1,0-.35Zm4.56.06c.12,0,.36.12.36.19s-.21.09-.34,0-.1-.22,0-.22Zm4.58.13v.33c0,.18,0,.63.07,1a4.91,4.91,0,0,1,0,.67l-.32,0c-.21,0-.3,0-.32,0a9.38,9.38,0,0,1-.21-1.49l0-.44.17,0a2.33,2.33,0,0,1,.38,0Zm-12.14.05h.32l.43,0,0,.67c0,.37,0,.89-.06,1.15s0,.48,0,.5l.69,0a4.36,4.36,0,0,1,.72.05c.12.05.14.22.14,1.29s0,.93-.11,1a1.32,1.32,0,0,1-.56,0,2.19,2.19,0,0,0-.51,0,5.06,5.06,0,0,1-.55,0c-.07,0-.08-.19-.09-1.21a3.71,3.71,0,0,0-.07-1.23.9.9,0,0,0-.28,0c-.21,0-.21,0-.25-.21s0-.56,0-1a8.24,8.24,0,0,0,0-.85c0-.09,0-.13.28-.13Zm8.56,0h-.06c-.11,0-.14,0-.13.11a2.24,2.24,0,0,1,0,.86c-.06.06,0,.08,0,.12s.23.07.19,0a1.77,1.77,0,0,1,0-.89c.08-.09.07-.16-.06-.17Zm-5.42.1s0,0,0,.08a1.42,1.42,0,0,0,.33.21c.35.18.32.17.32.09s-.08-.1-.17-.14a1.34,1.34,0,0,1-.31-.17.46.46,0,0,0-.16-.07Zm1.61.08a.85.85,0,0,0-.38.05.06.06,0,0,0,0,.06,4.82,4.82,0,0,0,.76,0s0,0,0-.06a1,1,0,0,0-.38-.05Zm2.94.36s0,0,0,.06a1,1,0,0,0,.25.2c.33.19.37.17.1-.06a.79.79,0,0,0-.33-.21Zm-2.94.16h-.05c-.07,0-.07.16,0,.29s.21.07.17-.1-.07-.19-.12-.2Zm2.66,1.2a.07.07,0,0,1,.07.05s.06.11.05.13-.11,0-.14,0,0-.14,0-.14Zm5.63,0c.1,0,.25.07.25.15s0,.07-.08,0-.08,0-.07.11a5,5,0,0,0,.1.66c0,.27.14.72.2,1a7,7,0,0,0,.21.87c.07.19.14.48.19.63a2.28,2.28,0,0,0,.21.51c.15.26.16.39,0,.46a1.65,1.65,0,0,1-.32.07c-.21,0-.24,0-.3-.11a10.81,10.81,0,0,1-.41-2.56,3.27,3.27,0,0,0-.07-.62,3.83,3.83,0,0,1,0-.6c0-.44,0-.53,0-.57h.06Zm-8,.12h.07c.13,0,.2,0,.2.09s-.12.12-.27,0-.15-.13,0-.13Zm-.42.07c.18,0,.67.24.67.34s0,.12-.43-.09c-.24-.13-.33-.2-.29-.24Zm7.72.05a1.54,1.54,0,0,1,.37,0s0,.21,0,.44,0,.42.06.63.07.41.09.61,0,.37-.06.4a6.54,6.54,0,0,1-.89.06c-.43,0-.91,0-1.06.05s-.27,0-.29-.09a1.51,1.51,0,0,1,0-.3,5.69,5.69,0,0,0-.17-1.42,1,1,0,0,1-.09-.34s1.36-.06,2,0Zm1.1.2a.13.13,0,0,1,.13.11s0,.07,0,.07-.17-.13-.13-.16,0,0,.05,0Zm-15.26,0c.32,0,.34.08.26.33a5.5,5.5,0,0,0-.08.91c0,.38,0,.77,0,.86l0,.17h.36a1,1,0,0,1,.38,0,2.89,2.89,0,0,1-.08.6c0,.31-.11.73-.13.93a1.21,1.21,0,0,1-.06.38h-2.21l0-.49c0-.26,0-.48,0-.48a1.38,1.38,0,0,0,0-.45c0-.47-.13-.62-.18-.21,0,.13,0,.36-.08.5s-.06.42-.08.61a1.15,1.15,0,0,1-.08.41,6,6,0,0,1-1.27.09c-.12,0-.12,0-.09-.26l.06-.37a6.44,6.44,0,0,1,.18-.85,1.57,1.57,0,0,0,0-.3c0-.14,0-.18.11-.2a3.25,3.25,0,0,1,1.24-.07,6.53,6.53,0,0,0,1.51,0c.07,0,0-.06-.12-.08a.57.57,0,0,0-.26,0s-.08,0-.09,0a6.92,6.92,0,0,0-1.54-.12c-.12,0-.14,0-.14-.09a3.66,3.66,0,0,1,.18-.81l.16-.62a2.35,2.35,0,0,1,.11-.35,2,2,0,0,1,.42,0c.21,0,.67,0,1-.06l.43,0Zm-2.71,0,.26,0a.87.87,0,0,1,.28.05,1.28,1.28,0,0,1-.13.5.4.4,0,0,0,0,.15c0,.17-.13,1.13-.15,1.22h0s-.11.06-.23.06h-.21v-.21a2.32,2.32,0,0,1,.06-.45,7.49,7.49,0,0,0,.15-1.17Zm3.7,0h.15l.65,0c.25,0,.28,0,.26.11s0,.52,0,1,0,1,0,1a.66.66,0,0,1-.4,0,4.09,4.09,0,0,0-.6-.07l-.58,0v-1a7.56,7.56,0,0,1,0-1.06s.06-.07.14-.05a.17.17,0,0,0,.14,0,.76.76,0,0,1,.26,0Zm-4.39,0c.1,0,.11.13,0,.23s-.14.23-.21.61a8.29,8.29,0,0,1-.25.85l-.31.87c-.07.19-.16.42-.2.51s-.09.19-.13.29-.18.19-.33.08-.09-.08,0-.39a2.28,2.28,0,0,1,.2-.45A2.27,2.27,0,0,0,122,312l.18-.45a2.8,2.8,0,0,0,.13-.41,2.53,2.53,0,0,1,.12-.36,1.2,1.2,0,0,0,.13-.33c.1-.3.29-.6.42-.64Zm8.36.07a5.26,5.26,0,0,1,.85.44,1,1,0,0,0,.25.12,4.3,4.3,0,0,1,1.17.77c0,.16-.05.17-.29,0l-.47-.26c-.14-.07-.35-.18-.46-.25a1.56,1.56,0,0,0-.28-.16l-.35-.16c-.5-.21-.37,0,.15.22.15.08.37.19.47.26a1.23,1.23,0,0,0,.26.12,1,1,0,0,1,.36.23,1.14,1.14,0,0,0,.38.23c.21,0,.28.18.28.61a1.6,1.6,0,0,1,0,.44,5.52,5.52,0,0,1-.71.05c-.35,0-.71,0-1.06.08a1.85,1.85,0,0,0-.45.11s-.06,0-.06-.3v-.35h.4l1.09,0c.69,0,.7,0,.7-.16a.15.15,0,0,0-.09-.15.19.19,0,0,1-.13-.1.16.16,0,0,0-.13-.08,2.65,2.65,0,0,1-.78-.41.51.51,0,0,0-.21-.1,3,3,0,0,1-.85-.44c-.07-.09-.09-.73,0-.73Zm-1,.12s0,0,0,.06,0,.08,0,.08a0,0,0,0,0,.05-.05h0a.1.1,0,0,0-.05-.08Zm-7,.09s.06,0,0,.09a.13.13,0,0,1-.21.08c-.06-.06.06-.16.15-.16Zm18.36,0c.1,0,.27.19.24.27s-.11.1-.2,0-.11-.23,0-.23Zm-18.49.36a.14.14,0,0,1,.13.08.15.15,0,0,1,0,.13c-.06.05-.22,0-.22-.13S123.1,310.43,123.17,310.43Zm18.66.08a.23.23,0,0,1,.18.13.17.17,0,0,1-.06.18c-.1.07-.09.08,0,.16a.28.28,0,0,1,.11.12c0,.07-.18.06-.24,0a.86.86,0,0,1-.1-.52.11.11,0,0,1,.09-.05Zm-18.74.24h0c.13,0,.16,0,.18.16a.82.82,0,0,1,0,.27c0,.09-.06.12-.17.11s-.26,0-.26-.16,0-.1.18-.07.18,0,.18,0,0-.06-.09-.06-.23-.08-.19-.17.07-.08.15-.08Zm14.68.11s0,0,0,.05,0,.08,0,.08.05,0,.05,0a.13.13,0,0,0-.05-.09h0Zm-6.35,0a2.67,2.67,0,0,1,.77.33c.85.44,1.05.54,1.05.59s-.08,0-.17,0a2.18,2.18,0,0,1-.81-.29l-.57-.27c-.29-.13-.35-.17-.35-.28s0-.11.07-.11Zm0,.42a6.89,6.89,0,0,1,1,.55c0,.08-.21,0-.47-.08l-.25-.12-.15.15c-.17.16-.2.17-.28.08s-.08-.14,0-.14a.19.19,0,0,0,.13-.05s0,0,0,0-.07,0-.05-.17l0-.17Zm10.55,0a.49.49,0,0,1,.17.06c.1.05.17.13.17.17s-.11.11-.27,0-.17-.2-.08-.19Zm-19.13.08.14,0c.25,0,.29.06.29.17s-.07.2-.25.16-.33-.16-.28-.28a.1.1,0,0,1,.09-.06Zm13.13.31c.07,0,.18,0,.18.09s-.19.07-.23,0a.06.06,0,0,1,0-.08H136Zm6.16,0c.18,0,.4.16.35.25s-.08.07-.29,0-.27-.2-.08-.2Zm-1,.05.07.54a5.75,5.75,0,0,1,.08.69,2.5,2.5,0,0,0,.06.38c.09.36.08.36-.49.34a1.57,1.57,0,0,1-.57-.07.42.42,0,0,1-.07-.27,1.71,1.71,0,0,0-.1-.49,4.77,4.77,0,0,1-.13-.51,1.23,1.23,0,0,0-.11-.34c0-.07-.07-.13,0-.15a2,2,0,0,1,.35,0l.63-.05Zm-18.41,0a1.29,1.29,0,0,1,.26.08c.14.06.17.09.15.19s-.05.24-.08.4-.06.36-.07.46,0,.18-.24.18c-.48,0-.61,0-.61-.13s.12-.21.27-.18.14,0,.14,0-.06-.06-.13-.06-.13,0-.13-.1a1.79,1.79,0,0,1,.43-.81Zm16.45.14a2,2,0,0,1,.59,0,.74.74,0,0,1,.06.36,3.72,3.72,0,0,0,.08.67,3.45,3.45,0,0,1,.07.55v.19h-.42a3.35,3.35,0,0,0-.53,0h-.75c-.63,0-.65,0-.67-.13a7.41,7.41,0,0,1-.11-.89,2.34,2.34,0,0,0-.07-.45.47.47,0,0,1,0-.23,9.43,9.43,0,0,1,1.78-.12Zm-2.1,0c.17,0,.18.13.21.66,0,.34,0,.69.07.77a.29.29,0,0,1-.07.27c-.08.1-.15.11-.67.13s-.59,0-.61-.05a.14.14,0,0,0-.14-.07c-.07,0-.13,0-.13,0s-.06-.07-.13-.11-.32-.36-.21-.36a.8.8,0,0,1,.44.32c.15.17.31.25.31.16a1.05,1.05,0,0,0-.31-.32,2.09,2.09,0,0,1-.56-.55c0-.13.12-.07.54.29a5.19,5.19,0,0,0,.46.36,8.14,8.14,0,0,0-.85-.81c-.25-.22-.17-.36.11-.18a3.73,3.73,0,0,1,.3.26,1.85,1.85,0,0,0,.32.25l.15.07-.09-.13c0-.07-.11-.13-.13-.13a1,1,0,0,1-.23-.18c-.12-.1-.25-.19-.38-.28s-.17-.13-.16-.16.35-.14.83-.1a3.84,3.84,0,0,0,.68,0,1,1,0,0,1,.24-.05Zm-9.56.14h.12a8.4,8.4,0,0,0,1,.05l.78,0v1.7h-2.27v-.18a3.33,3.33,0,0,1,.1-.55,3,3,0,0,0,.11-.66c0-.32,0-.42.16-.41Zm14.66,0h.11c.18,0,.29.11.29.18s-.19.06-.23,0a.13.13,0,0,0-.13-.05.1.1,0,0,1-.1-.08s0-.05.06-.05Zm-6.41,0c-.1,0,0,.14.13.24s.27.15.18,0a.82.82,0,0,0-.32-.26Zm-5.25.06v1.24h0v.46h-.26c-.46,0-.68,0-.69-.12s0-.43,0-.84v-.75h1Zm2.65,0h-.08c-.06,0-.07.05,0,.1s.26.05.26,0S133.26,312.23,133.18,312.23Zm-.9.07a.12.12,0,0,0-.11.08c0,.06,0,.08.12.06s.12-.06.11-.09-.07-.05-.12,0Zm-.75,0q-.09,0-.09.06c0,.05.05.08.14.08s.14-.12,0-.14Zm10.7.15.14,0c.32.05.37.08.37.18s0,.11-.26,0a.42.42,0,0,1-.25-.16c0-.06,0-.08,0-.08Zm-9.09.25c.4,0,.5,0,.52.08s0,.19-.11.16-.13,0,0,0a.39.39,0,0,0,.14.08s0,0,0,.08,0,.07-.11.07a2.62,2.62,0,0,1-.68-.24,1.15,1.15,0,0,0-.25-.12c-.26-.08-.06-.14.48-.14Zm-1.17.06a2.56,2.56,0,0,1,1.11.48c.06.06,0,.07-.08.07a.68.68,0,0,1-.28-.07.49.49,0,0,0-.21-.08.27.27,0,0,1-.17-.13c-.06-.09-.12-.12-.18-.1s-.25,0-.25-.13,0,0,.05,0Zm1.3,0s0,0,0,.05.11.07.07,0A.11.11,0,0,0,133.27,312.83Zm-1.72,0a.23.23,0,0,1,.17.05,1.77,1.77,0,0,0,.32.21c.15.09.27.19.26.22s-.26.08-.59-.08-.4-.25-.34-.35a.27.27,0,0,1,.17,0Zm10.85,0h.1a1.06,1.06,0,0,1,.54.21c0,.1-.3.07-.51-.05s-.24-.18-.13-.18Zm-20.26.35h.21c.49,0,.56.05.55.1v.11c0,.09-.08.1-.21,0a1.06,1.06,0,0,0-.35-.09c-.15,0-.27-.06-.28-.1s0-.05.09-.05Zm20.45.05c.12,0,.31.06.3.11a.15.15,0,0,1-.12.07c-.12,0-.32-.11-.27-.17h.09Zm-20.57.21h.13c.27,0,.33.08.24.13a.39.39,0,0,1-.39,0c-.09-.09-.08-.13,0-.13Zm1.68,0s0,0,0,.06a0,0,0,0,0,0,.05,0,0,0,0,0,0-.05h0s0,0,0,0Zm11.75.16c.11,0,.26.13.21.19s-.08.08-.19,0-.13-.2,0-.2Z" transform="translate(0 0.3)"/></g></g></g></g></g></svg>